<?xml version="1.0" encoding="UTF-8"?>
<svg id="Layer_2" data-name="Layer 2" xmlns="http://www.w3.org/2000/svg" xmlns:xlink="http://www.w3.org/1999/xlink" viewBox="0 0 139.37 139.38">
  <defs>
    <style>
      .cls-1 {
        fill: none;
      }

      .cls-2 {
        fill: url(#radial-gradient-7);
      }

      .cls-3 {
        fill: url(#radial-gradient-6);
      }

      .cls-4 {
        fill: url(#radial-gradient-5);
      }

      .cls-5 {
        fill: url(#radial-gradient-4);
      }

      .cls-6 {
        fill: url(#radial-gradient-9);
      }

      .cls-7 {
        fill: url(#radial-gradient-8);
      }

      .cls-8 {
        fill: url(#radial-gradient-3);
      }

      .cls-9 {
        fill: url(#radial-gradient-2);
      }

      .cls-10 {
        fill: url(#linear-gradient-2);
      }

      .cls-11 {
        fill: url(#radial-gradient);
      }

      .cls-12 {
        fill: url(#linear-gradient);
      }

      .cls-13 {
        clip-path: url(#clippath-17);
      }

      .cls-14 {
        clip-path: url(#clippath-19);
      }

      .cls-15 {
        clip-path: url(#clippath-11);
      }

      .cls-16 {
        clip-path: url(#clippath-16);
      }

      .cls-17 {
        clip-path: url(#clippath-18);
      }

      .cls-18 {
        clip-path: url(#clippath-10);
      }

      .cls-19 {
        clip-path: url(#clippath-15);
      }

      .cls-20 {
        clip-path: url(#clippath-13);
      }

      .cls-21 {
        clip-path: url(#clippath-14);
      }

      .cls-22 {
        clip-path: url(#clippath-12);
      }

      .cls-23 {
        clip-path: url(#clippath-50);
      }

      .cls-24 {
        clip-path: url(#clippath-52);
      }

      .cls-25 {
        clip-path: url(#clippath-51);
      }

      .cls-26 {
        clip-path: url(#clippath-31);
      }

      .cls-27 {
        clip-path: url(#clippath-32);
      }

      .cls-28 {
        clip-path: url(#clippath-33);
      }

      .cls-29 {
        clip-path: url(#clippath-34);
      }

      .cls-30 {
        clip-path: url(#clippath-35);
      }

      .cls-31 {
        clip-path: url(#clippath-39);
      }

      .cls-32 {
        clip-path: url(#clippath-30);
      }

      .cls-33 {
        clip-path: url(#clippath-36);
      }

      .cls-34 {
        clip-path: url(#clippath-37);
      }

      .cls-35 {
        clip-path: url(#clippath-38);
      }

      .cls-36 {
        clip-path: url(#clippath-27);
      }

      .cls-37 {
        clip-path: url(#clippath-29);
      }

      .cls-38 {
        clip-path: url(#clippath-26);
      }

      .cls-39 {
        clip-path: url(#clippath-28);
      }

      .cls-40 {
        clip-path: url(#clippath-20);
      }

      .cls-41 {
        clip-path: url(#clippath-21);
      }

      .cls-42 {
        clip-path: url(#clippath-22);
      }

      .cls-43 {
        clip-path: url(#clippath-23);
      }

      .cls-44 {
        clip-path: url(#clippath-24);
      }

      .cls-45 {
        clip-path: url(#clippath-25);
      }

      .cls-46 {
        clip-path: url(#clippath-41);
      }

      .cls-47 {
        clip-path: url(#clippath-42);
      }

      .cls-48 {
        clip-path: url(#clippath-43);
      }

      .cls-49 {
        clip-path: url(#clippath-44);
      }

      .cls-50 {
        clip-path: url(#clippath-45);
      }

      .cls-51 {
        clip-path: url(#clippath-49);
      }

      .cls-52 {
        clip-path: url(#clippath-40);
      }

      .cls-53 {
        clip-path: url(#clippath-46);
      }

      .cls-54 {
        clip-path: url(#clippath-47);
      }

      .cls-55 {
        clip-path: url(#clippath-48);
      }

      .cls-56 {
        clip-path: url(#clippath-1);
      }

      .cls-57 {
        clip-path: url(#clippath-3);
      }

      .cls-58 {
        clip-path: url(#clippath-4);
      }

      .cls-59 {
        clip-path: url(#clippath-2);
      }

      .cls-60 {
        clip-path: url(#clippath-7);
      }

      .cls-61 {
        clip-path: url(#clippath-6);
      }

      .cls-62 {
        clip-path: url(#clippath-9);
      }

      .cls-63 {
        clip-path: url(#clippath-8);
      }

      .cls-64 {
        clip-path: url(#clippath-5);
      }

      .cls-65 {
        fill: url(#radial-gradient-16);
      }

      .cls-66 {
        fill: url(#radial-gradient-12);
      }

      .cls-67 {
        fill: url(#radial-gradient-14);
      }

      .cls-68 {
        fill: url(#radial-gradient-13);
      }

      .cls-69 {
        fill: url(#radial-gradient-10);
      }

      .cls-70 {
        fill: url(#radial-gradient-17);
      }

      .cls-71 {
        fill: url(#radial-gradient-19);
      }

      .cls-72 {
        fill: url(#radial-gradient-11);
      }

      .cls-73 {
        fill: url(#radial-gradient-18);
      }

      .cls-74 {
        fill: url(#radial-gradient-15);
      }

      .cls-75 {
        fill: url(#radial-gradient-48);
      }

      .cls-76 {
        fill: url(#radial-gradient-47);
      }

      .cls-77 {
        fill: url(#radial-gradient-44);
      }

      .cls-78 {
        fill: url(#radial-gradient-43);
      }

      .cls-79 {
        fill: url(#radial-gradient-49);
      }

      .cls-80 {
        fill: url(#radial-gradient-42);
      }

      .cls-81 {
        fill: url(#radial-gradient-40);
      }

      .cls-82 {
        fill: url(#radial-gradient-41);
      }

      .cls-83 {
        fill: url(#radial-gradient-46);
      }

      .cls-84 {
        fill: url(#radial-gradient-45);
      }

      .cls-85 {
        fill: url(#radial-gradient-25);
      }

      .cls-86 {
        fill: url(#radial-gradient-51);
      }

      .cls-87 {
        fill: url(#radial-gradient-50);
      }

      .cls-88 {
        fill: url(#radial-gradient-35);
      }

      .cls-89 {
        fill: url(#radial-gradient-34);
      }

      .cls-90 {
        fill: url(#radial-gradient-22);
      }

      .cls-91 {
        fill: url(#radial-gradient-28);
      }

      .cls-92 {
        fill: url(#radial-gradient-23);
      }

      .cls-93 {
        fill: url(#radial-gradient-20);
      }

      .cls-94 {
        fill: url(#radial-gradient-24);
      }

      .cls-95 {
        fill: url(#radial-gradient-26);
      }

      .cls-96 {
        fill: url(#radial-gradient-29);
      }

      .cls-97 {
        fill: url(#radial-gradient-27);
      }

      .cls-98 {
        fill: url(#radial-gradient-21);
      }

      .cls-99 {
        fill: url(#radial-gradient-39);
      }

      .cls-100 {
        fill: url(#radial-gradient-38);
      }

      .cls-101 {
        fill: url(#radial-gradient-33);
      }

      .cls-102 {
        fill: url(#radial-gradient-32);
      }

      .cls-103 {
        fill: url(#radial-gradient-31);
      }

      .cls-104 {
        fill: url(#radial-gradient-30);
      }

      .cls-105 {
        fill: url(#radial-gradient-37);
      }

      .cls-106 {
        fill: url(#radial-gradient-36);
      }

      .cls-107 {
        clip-path: url(#clippath);
      }
    </style>
    <clipPath id="clippath">
      <path class="cls-1" d="M.26,69.69c0,38.34,31.09,69.42,69.42,69.42s69.42-31.08,69.42-69.42S108.02.27,69.69.27.26,31.35.26,69.69"/>
    </clipPath>
    <radialGradient id="radial-gradient" cx="-60.95" cy="486.76" fx="-60.95" fy="486.76" r="2.27" gradientTransform="translate(3107.61 24532.8) scale(50.33 -50.33)" gradientUnits="userSpaceOnUse">
      <stop offset="0" stop-color="#fff"/>
      <stop offset=".26" stop-color="#fff"/>
      <stop offset=".43" stop-color="#e3e4e4"/>
      <stop offset=".9" stop-color="#9c9ea1"/>
      <stop offset="1" stop-color="#9c9ea1"/>
    </radialGradient>
    <clipPath id="clippath-1">
      <path class="cls-1" d="M.53,69.69C.53,31.56,31.56.54,69.69.54s69.15,31.02,69.15,69.15-31.02,69.16-69.15,69.16S.53,107.82.53,69.69M0,69.69c0,38.43,31.26,69.69,69.69,69.69s69.68-31.26,69.68-69.69S108.11,0,69.69,0,0,31.27,0,69.69"/>
    </clipPath>
    <radialGradient id="radial-gradient-2" cx="-60.94" cy="486.76" fx="-60.94" fy="486.76" r="2.27" gradientTransform="translate(3145.32 24850.52) scale(50.98 -50.98)" gradientUnits="userSpaceOnUse">
      <stop offset="0" stop-color="#89aedc"/>
      <stop offset=".06" stop-color="#6c98ca"/>
      <stop offset=".19" stop-color="#346da8"/>
      <stop offset=".25" stop-color="#1f5d9b"/>
      <stop offset=".57" stop-color="#084d85"/>
      <stop offset=".74" stop-color="#0a3160"/>
      <stop offset=".9" stop-color="#0d1a43"/>
      <stop offset="1" stop-color="#0e1238"/>
    </radialGradient>
    <clipPath id="clippath-2">
      <path class="cls-1" d="M3.01,69.69c0,36.83,29.86,66.68,66.67,66.68s66.67-29.85,66.67-66.68S106.5,3.01,69.69,3.01,3.01,32.86,3.01,69.69"/>
    </clipPath>
    <linearGradient id="linear-gradient" x1="-59.29" y1="486.16" x2="-57.02" y2="486.16" gradientTransform="translate(-28531.77 3491.42) rotate(90) scale(58.83 -58.83)" gradientUnits="userSpaceOnUse">
      <stop offset="0" stop-color="#bbbdbf"/>
      <stop offset=".18" stop-color="#a4a5a7"/>
      <stop offset=".54" stop-color="#7b7c7e"/>
      <stop offset=".83" stop-color="#626365"/>
      <stop offset="1" stop-color="#595a5c"/>
    </linearGradient>
    <clipPath id="clippath-3">
      <path class="cls-1" d="M3.84,69.69c0,36.38,29.48,65.85,65.85,65.85s65.86-29.48,65.86-65.85S106.06,3.83,69.69,3.83,3.84,33.31,3.84,69.69"/>
    </clipPath>
    <radialGradient id="radial-gradient-3" cx="-60.8" cy="486.9" fx="-60.8" fy="486.9" r="2.27" gradientTransform="translate(3350.13 26543.17) scale(54.44 -54.44)" xlink:href="#radial-gradient-2"/>
    <clipPath id="clippath-4">
      <path class="cls-1" d="M23.73,69.69c0,25.38,20.58,45.96,45.96,45.96s45.95-20.58,45.95-45.96-20.57-45.96-45.95-45.96-45.96,20.58-45.96,45.96"/>
    </clipPath>
    <linearGradient id="linear-gradient-2" x1="-59.91" y1="491.88" x2="-57.64" y2="491.88" gradientTransform="translate(19945.15 -2305.91) rotate(-90) scale(40.41 -40.41)" gradientUnits="userSpaceOnUse">
      <stop offset="0" stop-color="#fff"/>
      <stop offset=".15" stop-color="#dedede"/>
      <stop offset=".44" stop-color="#a5a5a6"/>
      <stop offset=".69" stop-color="#7b7c7e"/>
      <stop offset=".88" stop-color="#626365"/>
      <stop offset="1" stop-color="#595a5c"/>
    </linearGradient>
    <clipPath id="clippath-5">
      <path class="cls-1" d="M24.85,69.65c0,24.76,20.08,44.83,44.83,44.83s44.82-20.08,44.82-44.83-20.07-44.84-44.82-44.84-44.83,20.08-44.83,44.84"/>
    </clipPath>
    <radialGradient id="radial-gradient-4" cx="-60.95" cy="486.75" fx="-60.95" fy="486.75" r="2.27" gradientTransform="translate(3107.82 24531.74) scale(50.33 -50.33)" xlink:href="#radial-gradient"/>
    <clipPath id="clippath-6">
      <path class="cls-1" d="M89.54,49.35v2.21h-26.87v-2.21h-6.41v2.21h-16.87v5.69h5.08c-3.52,1.54-5.79,4.89-5.79,9.79,0,6.58,6.19,10.32,11.17,10.32h18.61v-2h5.26v2h26.6v-5.69h-4.38v-14.43h4.38v-5.69h-4.38v-2.21h-6.4Z"/>
    </clipPath>
    <radialGradient id="radial-gradient-5" cx="-61.61" cy="486.07" fx="-61.61" fy="486.07" r="2.27" gradientTransform="translate(2343.27 18182.34) scale(37.33 -37.33)" xlink:href="#radial-gradient-2"/>
    <clipPath id="clippath-7">
      <path class="cls-1" d="M88.06,50.04v-2.31c.51,0,9.34-.02,9.85-.02v2.33h4.33c0,.5-.02,8.3-.02,8.81h-4.47v11.59h4.45c0,.5.02,8.42.02,8.93-.54,0-29.24-.05-29.78-.05v-2.04h-2.29v2.09h-20.35c-3.98,0-7.81-1.75-9.98-4.58-1.88-2.2-2.99-5.03-2.99-7.6,0-3.41.87-6,2.72-8.14l.41-.46s-1.85,0-2.26,0v-8.58h17.09v-2.31c.51,0,9.19.02,9.69.02v2.29h23.58ZM87.5,47.18v2.31h-22.48v-2.29l-10.79-.02v2.31h-17.08v9.68s1.11,0,1.66,0c-1.71,2.15-2.54,4.71-2.54,8.03,0,2.69,1.16,5.66,3.12,7.94,2.27,2.95,6.27,4.79,10.41,4.79h20.9v-2.09h1.18v2.04l30.89.05-.02-10.03h-4.45v-10.5h4.47l.02-9.91h-4.33v-2.33l-10.95.03Z"/>
    </clipPath>
    <radialGradient id="radial-gradient-6" cx="-60.97" cy="486.73" fx="-60.97" fy="486.73" r="2.27" gradientTransform="translate(3113.74 24598.43) scale(50.46 -50.46)" xlink:href="#radial-gradient-2"/>
    <clipPath id="clippath-8">
      <path class="cls-1" d="M51.86,66.75v3.48c0,1.75,1.14,2.81,2.98,2.81h8.92s0-1.49,0-1.49h-9.08v-4.79h-2.83ZM52.31,61.71c0-1.49,1.04-2.63,2.3-2.63s2.31,1.14,2.31,2.63-1.03,2.64-2.31,2.64-2.3-1.11-2.3-2.64M49.82,57.37v1.49h1.81c-1.09.67-1.77,1.7-1.77,2.85,0,2.01,2.05,3.65,4.75,3.65s4.75-1.63,4.75-3.65c0-1.15-.67-2.18-1.76-2.85h1.81v-1.49h-9.58ZM76.38,59.75c0-1.76,1.12-2.93,2.51-2.93s2.52,1.17,2.52,2.93-1.13,2.94-2.52,2.94-2.51-1.15-2.51-2.94M73.72,59.75c0,2.34,2.23,4.23,5.17,4.23s5.18-1.89,5.18-4.23-2.23-4.22-5.18-4.22-5.17,1.89-5.17,4.22M52.07,56.74h5.1v-1.5h-5.1v1.5ZM60.99,55.24v12.25h2.61v-6.39h2.13v-1.49h-2.13v-4.37h-2.61ZM78.78,69.38c0-1.7,1.43-2.72,3.01-2.72s3.01,1.03,3.01,2.72-1.42,2.71-3.01,2.71-3.01-1.03-3.01-2.71M84.8,55.24v10.63c-.87-.41-1.9-.66-3.01-.66-3.11,0-5.6,1.86-5.61,4.16.02,2.29,2.5,4.16,5.61,4.16s5.59-1.86,5.6-4.16h0v-6.77h2.21v-1.51h-2.21v-2.16h2.21v-1.51h-2.21v-2.2h-2.6Z"/>
    </clipPath>
    <radialGradient id="radial-gradient-7" cx="-60.94" cy="486.76" fx="-60.94" fy="486.76" r="2.27" gradientTransform="translate(3107.43 24532.62) scale(50.33 -50.33)" gradientUnits="userSpaceOnUse">
      <stop offset="0" stop-color="#fff"/>
      <stop offset=".1" stop-color="#fff"/>
      <stop offset=".24" stop-color="#f4f5f5"/>
      <stop offset=".49" stop-color="#d9dadc"/>
      <stop offset=".81" stop-color="#acb0b4"/>
      <stop offset="1" stop-color="#8e9399"/>
    </radialGradient>
    <clipPath id="clippath-9">
      <path class="cls-1" d="M123.02,79.46c-.02,1.79,1.1,3.25,1.1,3.25,0,0,1.15-1.44,1.16-3.23.02-1.79-1.09-3.26-1.09-3.26,0,0-1.15,1.44-1.17,3.23"/>
    </clipPath>
    <radialGradient id="radial-gradient-8" cx="-57.41" cy="486.3" fx="-57.41" fy="486.3" r="2.25" gradientTransform="translate(-23888.59 5873.43) rotate(83.02) scale(50.3 -50.3)" xlink:href="#radial-gradient"/>
    <clipPath id="clippath-10">
      <path class="cls-1" d="M125.56,83.69c-2.16,2.44-2.6,5.58-2.6,5.58,0,0,3.05-.82,5.22-3.27,2.16-2.44,2.48-5.28,2.48-5.28,0,0-2.94.52-5.1,2.97"/>
    </clipPath>
    <radialGradient id="radial-gradient-9" cx="-57.42" cy="486.27" fx="-57.42" fy="486.27" r="2.27" gradientTransform="translate(-23896.82 5875.48) rotate(83.02) scale(50.32 -50.32)" xlink:href="#radial-gradient"/>
    <clipPath id="clippath-11">
      <path class="cls-1" d="M119.59,84.38c.62,2.7,2.52,4.56,2.52,4.56,0,0,.78-2.25.15-4.95-.62-2.7-2.56-4.18-2.56-4.18,0,0-.73,1.88-.11,4.57"/>
    </clipPath>
    <radialGradient id="radial-gradient-10" cx="-57.42" cy="486.23" fx="-57.42" fy="486.23" r="2.29" gradientTransform="translate(-24429.94 2914.52) rotate(90) scale(50.34 -50.34)" xlink:href="#radial-gradient"/>
    <clipPath id="clippath-12">
      <path class="cls-1" d="M122.49,92.38c-2.55,2.03-3.53,5.04-3.53,5.04,0,0,3.15-.28,5.71-2.32,2.56-2.03,3.36-4.76,3.36-4.76,0,0-2.98,0-5.54,2.04"/>
    </clipPath>
    <radialGradient id="radial-gradient-11" cx="-57.41" cy="486.26" fx="-57.41" fy="486.26" r="2.28" gradientTransform="translate(-24421.92 2902.47) rotate(90.03) scale(50.32 -50.32)" xlink:href="#radial-gradient"/>
    <clipPath id="clippath-13">
      <path class="cls-1" d="M116.49,91.96c.15,2.76,1.69,4.93,1.69,4.93,0,0,1.16-2.08,1.01-4.85-.15-2.76-1.8-4.56-1.8-4.56,0,0-1.04,1.73-.9,4.49"/>
    </clipPath>
    <radialGradient id="radial-gradient-12" cx="-57.43" cy="486.28" fx="-57.43" fy="486.28" r="2.27" gradientTransform="translate(-24428.45 2921.28) rotate(89.99) scale(50.34 -50.34)" xlink:href="#radial-gradient"/>
    <clipPath id="clippath-14">
      <path class="cls-1" d="M106.53,113.99c-3,.69-5.07,2.86-5.07,2.86,0,0,2.8,1.04,5.8.35,3.01-.69,4.8-2.68,4.8-2.68,0,0-1.55-.74-3.66-.74-.59,0-1.22.06-1.87.21"/>
    </clipPath>
    <radialGradient id="radial-gradient-13" cx="-57.43" cy="486.26" fx="-57.43" fy="486.26" r="2.28" gradientTransform="translate(-24434.19 2944.54) rotate(89.94) scale(50.36 -50.36)" xlink:href="#radial-gradient"/>
    <clipPath id="clippath-15">
      <path class="cls-1" d="M101.3,110.88c-1.08,2.61-.61,5.28-.61,5.28,0,0,1.98-1.41,3.06-4.01,1.08-2.6.35-4.98.35-4.98,0,0-1.72,1.13-2.81,3.72"/>
    </clipPath>
    <radialGradient id="radial-gradient-14" cx="-57.43" cy="486.27" fx="-57.43" fy="486.27" r="2.28" gradientTransform="translate(-24428.31 2919.88) rotate(90) scale(50.34 -50.34)" xlink:href="#radial-gradient"/>
    <clipPath id="clippath-16">
      <path class="cls-1" d="M93.53,120.75s2.38,1.58,5.31,1.58c2.93.01,5.03-1.44,5.03-1.44,0,0-2.09-1.67-5.03-1.68h-.05c-2.91,0-5.27,1.54-5.27,1.54"/>
    </clipPath>
    <radialGradient id="radial-gradient-15" cx="-57.41" cy="486.25" fx="-57.41" fy="486.25" r="2.26" gradientTransform="translate(-24425.03 2926) rotate(89.98) scale(50.34 -50.34)" xlink:href="#radial-gradient"/>
    <clipPath id="clippath-17">
      <path class="cls-1" d="M94.76,114.81c-1.64,2.29-1.79,5-1.79,5,0,0,2.24-.93,3.88-3.22,1.65-2.29,1.48-4.77,1.48-4.77,0,0-1.93.71-3.57,3"/>
    </clipPath>
    <radialGradient id="radial-gradient-16" cx="-57.4" cy="486.46" fx="-57.4" fy="486.46" r="2.27" gradientTransform="translate(-24426.31 2913.79) rotate(90.01) scale(50.32 -50.32)" xlink:href="#radial-gradient"/>
    <clipPath id="clippath-18">
      <path class="cls-1" d="M85.97,124.95c-.92-.45-1.3-1.56-.85-2.47.46-.92,1.57-1.3,2.49-.84.92.45,1.3,1.56.84,2.48-.32.66-.98,1.03-1.66,1.03-.27,0-.56-.06-.82-.2M86.67,119.38c-.37.73-.53,1.48-.5,2.12-.36-.51-.94-1.02-1.68-1.38-1.54-.76-3.72-.92-4.17-.01-.46.91,1,2.55,2.54,3.3.74.36,1.49.52,2.12.5-.51.36-1.02.94-1.38,1.67-.76,1.55-.93,3.72-.01,4.16.91.46,2.54-1,3.29-2.54.36-.74.53-1.49.5-2.11.36.51.94,1.01,1.68,1.37,1.53.76,3.72.92,4.16.01.45-.91-1-2.54-2.55-3.3-.73-.36-1.48-.51-2.11-.48.52-.37,1.01-.95,1.38-1.68.75-1.54.92-3.72,0-4.17-.12-.06-.24-.08-.37-.08-.93,0-2.26,1.28-2.92,2.63"/>
    </clipPath>
    <radialGradient id="radial-gradient-17" cx="-57.41" cy="486.25" fx="-57.41" fy="486.25" r="2.28" gradientTransform="translate(-24416.89 2916.96) rotate(90) scale(50.32 -50.32)" xlink:href="#radial-gradient"/>
    <clipPath id="clippath-19">
      <path class="cls-1" d="M112.37,103.63c-.15-1.04.57-1.99,1.6-2.15,1.04-.14,2,.58,2.14,1.61.16,1.03-.56,1.99-1.6,2.15-.09,0-.18.02-.27.02-.93,0-1.73-.68-1.87-1.63M113.19,96.07c-1.02.16-1.56,2.32-1.31,4.06.12.83.42,1.56.81,2.07-.61-.23-1.39-.31-2.21-.19-1.74.24-3.67,1.37-3.52,2.39.14,1.02,2.31,1.56,4.05,1.31.83-.11,1.56-.41,2.08-.81-.23.61-.31,1.39-.19,2.23.24,1.73,1.37,3.65,2.39,3.51,1.02-.14,1.56-2.31,1.31-4.05-.12-.82-.42-1.56-.81-2.07.61.23,1.39.31,2.22.21,1.74-.26,3.67-1.39,3.52-2.41-.15-1.02-2.32-1.56-4.05-1.31-.83.12-1.56.42-2.07.81.23-.6.32-1.38.2-2.21-.25-1.68-1.3-3.53-2.29-3.53h-.11"/>
    </clipPath>
    <radialGradient id="radial-gradient-18" cx="-57.42" cy="486.27" fx="-57.42" fy="486.27" r="2.27" gradientTransform="translate(-24428.05 2919.84) rotate(89.99) scale(50.34 -50.34)" xlink:href="#radial-gradient"/>
    <clipPath id="clippath-20">
      <path class="cls-1" d="M14.51,79.48c.02,1.79,1.17,3.23,1.17,3.23,0,0,1.12-1.46,1.1-3.25-.02-1.79-1.17-3.23-1.17-3.23,0,0-1.11,1.47-1.09,3.26"/>
    </clipPath>
    <radialGradient id="radial-gradient-19" cx="-56.93" cy="490.32" fx="-56.93" fy="490.32" r="2.28" gradientTransform="translate(-2818.98 24787.87) rotate(-179.96) scale(50.36)" xlink:href="#radial-gradient"/>
    <clipPath id="clippath-21">
      <path class="cls-1" d="M11.61,86c2.16,2.44,5.21,3.27,5.21,3.27,0,0-.45-3.14-2.61-5.58-2.16-2.45-5.09-2.97-5.09-2.97,0,0,.31,2.83,2.48,5.28"/>
    </clipPath>
    <radialGradient id="radial-gradient-20" cx="-56.92" cy="490.34" fx="-56.92" fy="490.34" r="2.28" gradientTransform="translate(24191.76 5877.43) rotate(96.98) scale(50.34)" xlink:href="#radial-gradient"/>
    <clipPath id="clippath-22">
      <path class="cls-1" d="M17.52,83.99c-.62,2.69.15,4.95.15,4.95,0,0,1.9-1.86,2.52-4.56.62-2.69-.11-4.57-.11-4.57,0,0-1.94,1.48-2.57,4.18"/>
    </clipPath>
    <radialGradient id="radial-gradient-21" cx="-56.93" cy="490.31" fx="-56.93" fy="490.31" r="2.27" gradientTransform="translate(-2797.31 24773.38) rotate(-179.99) scale(50.32)" xlink:href="#radial-gradient"/>
    <clipPath id="clippath-23">
      <path class="cls-1" d="M15.13,95.1c2.56,2.04,5.71,2.32,5.71,2.32,0,0-.98-3.01-3.53-5.04-2.56-2.04-5.54-2.04-5.54-2.04,0,0,.81,2.73,3.36,4.76"/>
    </clipPath>
    <radialGradient id="radial-gradient-22" cx="-56.91" cy="490.53" fx="-56.91" fy="490.53" r="2.28" gradientTransform="translate(-2782.02 24796.27) rotate(179.99) scale(50.32)" xlink:href="#radial-gradient"/>
    <clipPath id="clippath-24">
      <path class="cls-1" d="M20.6,92.03c-.14,2.77,1.01,4.85,1.01,4.85,0,0,1.55-2.17,1.69-4.93.14-2.76-.9-4.49-.9-4.49,0,0-1.65,1.8-1.8,4.56"/>
    </clipPath>
    <radialGradient id="radial-gradient-23" cx="-56.93" cy="490.33" fx="-56.93" fy="490.33" r="2.27" gradientTransform="translate(-2774.86 24787.75) rotate(179.98) scale(50.34)" xlink:href="#radial-gradient"/>
    <clipPath id="clippath-25">
      <path class="cls-1" d="M27.73,114.53s1.8,1.99,4.8,2.68c2.99.69,5.79-.35,5.79-.35,0,0-2.06-2.17-5.07-2.86-.65-.15-1.29-.21-1.88-.21-2.11,0-3.65.74-3.65.74"/>
    </clipPath>
    <radialGradient id="radial-gradient-24" cx="-56.92" cy="490.31" fx="-56.92" fy="490.31" r="2.27" gradientTransform="translate(-2741.13 24810.48) rotate(179.97) scale(50.37)" xlink:href="#radial-gradient"/>
    <clipPath id="clippath-26">
      <path class="cls-1" d="M36.03,112.15c1.09,2.6,3.06,4.01,3.06,4.01,0,0,.47-2.66-.62-5.28-1.08-2.59-2.8-3.72-2.8-3.72,0,0-.73,2.39.35,4.98"/>
    </clipPath>
    <radialGradient id="radial-gradient-25" cx="-56.92" cy="490.32" fx="-56.92" fy="490.32" r="2.27" gradientTransform="translate(-2754.11 24789.94) rotate(-179.99) scale(50.35)" xlink:href="#radial-gradient"/>
    <clipPath id="clippath-27">
      <path class="cls-1" d="M40.94,119.21c-2.93,0-5.03,1.68-5.03,1.68,0,0,2.1,1.45,5.03,1.44,2.93,0,5.31-1.58,5.31-1.58,0,0-2.36-1.54-5.27-1.54h-.05"/>
    </clipPath>
    <radialGradient id="radial-gradient-26" cx="-56.93" cy="490.31" fx="-56.93" fy="490.31" r="2.28" gradientTransform="translate(-2746.52 24793.45) rotate(-179.98) scale(50.35)" xlink:href="#radial-gradient"/>
    <clipPath id="clippath-28">
      <path class="cls-1" d="M42.93,116.59c1.64,2.29,3.88,3.22,3.88,3.22,0,0-.14-2.71-1.78-5-1.65-2.29-3.58-3-3.58-3,0,0-.17,2.48,1.48,4.77"/>
    </clipPath>
    <radialGradient id="radial-gradient-27" cx="-56.93" cy="490.32" fx="-56.93" fy="490.32" r="2.27" gradientTransform="translate(-2749.91 24770.74) rotate(-179.98) scale(50.31)" xlink:href="#radial-gradient"/>
    <clipPath id="clippath-29">
      <path class="cls-1" d="M51.34,124.11c-.45-.92-.07-2.03.85-2.48.92-.45,2.03-.07,2.49.84.45.92.07,2.03-.84,2.47-.27.13-.55.2-.82.2-.68,0-1.35-.37-1.67-1.03M49.82,116.84c-.9.45-.75,2.63.01,4.17.36.73.86,1.32,1.38,1.68-.64-.03-1.38.12-2.12.48-1.55.76-2.99,2.4-2.54,3.3.45.91,2.63.75,4.16-.01.74-.36,1.32-.86,1.69-1.37-.04.63.13,1.37.49,2.11.75,1.54,2.39,2.99,3.3,2.54.91-.44.75-2.62-.02-4.16-.36-.73-.86-1.31-1.38-1.67.64.03,1.38-.13,2.12-.5,1.53-.76,2.99-2.39,2.55-3.3-.45-.91-2.63-.75-4.17.01-.74.36-1.32.87-1.68,1.38.03-.64-.13-1.38-.49-2.12-.66-1.35-1.99-2.63-2.93-2.63-.13,0-.26.03-.37.08"/>
    </clipPath>
    <radialGradient id="radial-gradient-28" cx="-56.92" cy="490.32" fx="-56.92" fy="490.32" r="2.27" gradientTransform="translate(-2723.35 24772.79) rotate(180) scale(50.32)" xlink:href="#radial-gradient"/>
    <clipPath id="clippath-30">
      <path class="cls-1" d="M25.28,105.24c-1.03-.16-1.75-1.12-1.6-2.15.14-1.03,1.1-1.76,2.14-1.61,1.03.16,1.75,1.11,1.6,2.15-.14.95-.95,1.63-1.88,1.63-.09,0-.18,0-.27-.02M24.19,99.6c-.12.82-.03,1.61.19,2.21-.51-.39-1.23-.69-2.07-.81-1.73-.25-3.9.29-4.05,1.31-.15,1.02,1.78,2.15,3.52,2.41.82.11,1.6.03,2.21-.21-.39.52-.69,1.25-.81,2.07-.25,1.74.29,3.9,1.32,4.05,1.02.14,2.15-1.78,2.4-3.51.11-.83.04-1.62-.2-2.23.51.39,1.24.7,2.08.81,1.73.25,3.9-.28,4.05-1.31.15-1.02-1.79-2.15-3.52-2.39-.83-.12-1.61-.04-2.21.19.39-.52.69-1.24.81-2.07.25-1.73-.3-3.9-1.31-4.06h-.12c-.99,0-2.05,1.85-2.29,3.53"/>
    </clipPath>
    <radialGradient id="radial-gradient-29" cx="-56.92" cy="490.33" fx="-56.92" fy="490.33" r="2.28" gradientTransform="translate(-2772.03 24793.88) rotate(-179.99) scale(50.34)" xlink:href="#radial-gradient"/>
    <clipPath id="clippath-31">
      <path class="cls-1" d="M67.36,126.33c0,1.29,1.04,2.33,2.33,2.33s2.32-1.04,2.32-2.33-1.04-2.33-2.32-2.33-2.33,1.04-2.33,2.33"/>
    </clipPath>
    <radialGradient id="radial-gradient-30" cx="-60.95" cy="486.78" fx="-60.95" fy="486.78" r="2.3" gradientTransform="translate(3107.92 24533.68) scale(50.33 -50.33)" xlink:href="#radial-gradient"/>
    <clipPath id="clippath-32">
      <polygon class="cls-1" points="8.9 60.35 13.59 60.96 13.28 63.27 8.63 62.66 8.42 64.89 19.94 66.4 20.12 64.18 15.34 63.55 15.65 61.23 20.43 61.86 20.84 59.64 9.31 58.13 8.9 60.35"/>
    </clipPath>
    <radialGradient id="radial-gradient-31" cx="-60.95" cy="486.75" fx="-60.95" fy="486.75" r="2.28" gradientTransform="translate(3108.39 24537.38) scale(50.34 -50.34)" xlink:href="#radial-gradient"/>
    <clipPath id="clippath-33">
      <path class="cls-1" d="M15.98,51.86c-.6-.32-1.68-.87-2.37-1.23l.02-.04c.76.14,1.89.37,2.59.49l2.4.41-.53,1.55-2.12-1.17ZM11.1,51.04l10.3,6.21.61-2.13-2.33-1.32.66-1.96,2.65.38.78-2.05-11.84-1.6-.84,2.46Z"/>
    </clipPath>
    <radialGradient id="radial-gradient-32" cx="-60.95" cy="486.75" fx="-60.95" fy="486.75" r="2.27" gradientTransform="translate(3107.09 24528.8) scale(50.32 -50.32)" xlink:href="#radial-gradient"/>
    <clipPath id="clippath-34">
      <polygon class="cls-1" points="17.13 37.78 24.17 41.53 24.14 41.56 15.7 40.23 14.76 42.03 24.88 47.82 25.77 46.06 18.89 42.29 18.99 42.33 27.17 43.61 28.28 41.88 18.18 36.11 17.13 37.78"/>
    </clipPath>
    <radialGradient id="radial-gradient-33" cx="-60.95" cy="486.76" fx="-60.95" fy="486.76" r="2.28" gradientTransform="translate(3107.32 24532.24) scale(50.33 -50.33)" xlink:href="#radial-gradient"/>
    <clipPath id="clippath-35">
      <path class="cls-1" d="M23.82,28.75l1.65,2.3c.49.69,1,1.38,1.56,2.02l-.02.02c-.76-.42-1.55-.8-2.25-1.12l-2.67-1.22-1.48,1.86,7.05,2.67,3.39,2.88,1.45-1.71-3.46-2.93-3.67-6.47-1.56,1.69Z"/>
    </clipPath>
    <radialGradient id="radial-gradient-34" cx="-60.94" cy="486.76" fx="-60.94" fy="486.76" r="2.26" gradientTransform="translate(3107.85 24537.88) scale(50.34 -50.34)" xlink:href="#radial-gradient"/>
    <clipPath id="clippath-36">
      <path class="cls-1" d="M32.85,26.61c-.34-.58-.98-1.61-1.39-2.27l.05-.04c.57.52,1.43,1.29,1.97,1.75l1.84,1.6-1.25,1.05-1.22-2.1ZM29.12,23.5l5.64,10.6,1.6-1.52-1.34-2.4,1.58-1.33,2.14,1.75,1.76-1.35-9.33-7.48-2.04,1.73Z"/>
    </clipPath>
    <radialGradient id="radial-gradient-35" cx="-60.95" cy="486.76" fx="-60.95" fy="486.76" r="2.28" gradientTransform="translate(3099.97 24471.18) scale(50.2 -50.2)" xlink:href="#radial-gradient"/>
    <clipPath id="clippath-37">
      <path class="cls-1" d="M41.18,15.21l1.24,2.25c1.03,1.86,2.13,3.53,2.78,4.56l-.03.02c-.77-.72-1.98-1.73-2.7-2.35l-3.77-3.11-1.75,1.06,5.64,10.18,1.68-1.03-1.28-2.32c-1.13-2.03-2.06-3.54-2.67-4.53l.03-.02c.73.79,1.9,1.8,2.7,2.47l3.71,3.02,1.83-.9-5.66-10.18-1.75.89Z"/>
    </clipPath>
    <radialGradient id="radial-gradient-36" cx="-60.94" cy="486.76" fx="-60.94" fy="486.76" r="2.29" gradientTransform="translate(3107.45 24532.99) scale(50.33 -50.33)" xlink:href="#radial-gradient"/>
    <clipPath id="clippath-38">
      <path class="cls-1" d="M52.16,10.68c-2.32.75-4.07,3.13-2.84,7.13.57,1.9,1.6,3.37,2.83,3.97.97.5,2.03.55,3.28.15.8-.26,1.75-.77,2.15-1.12l-1.87-5.85-2.95.94.56,1.74.98-.31.85,2.64c-.07.06-.21.12-.4.18-.99.32-2.32-.29-3.17-2.92-.92-2.86-.08-4.23,1.37-4.69.54-.17.97-.21,1.33-.16l-.21-1.96c-.1-.02-.21-.03-.35-.03-.39,0-.92.07-1.55.27"/>
    </clipPath>
    <radialGradient id="radial-gradient-37" cx="-60.95" cy="486.75" fx="-60.95" fy="486.75" r="2.28" gradientTransform="translate(3107.08 24527.73) scale(50.32 -50.32)" xlink:href="#radial-gradient"/>
    <clipPath id="clippath-39">
      <path class="cls-1" d="M68.94,15.7c.06,1.74-.39,2.22-1.04,2.25-.58.02-1.11-.48-1.16-2.17l-.25-7.51-2.24.17.24,7.04c.1,2.88,1.1,4.51,3.5,4.42,2.22-.07,3.27-1.72,3.17-4.67l-.24-7.01-2.25-.02.27,7.49Z"/>
    </clipPath>
    <radialGradient id="radial-gradient-38" cx="-60.95" cy="486.77" fx="-60.95" fy="486.77" r="2.26" gradientTransform="translate(3108.94 24541.57) scale(50.35 -50.35)" xlink:href="#radial-gradient"/>
    <clipPath id="clippath-40">
      <polygon class="cls-1" points="74.59 20.03 76.55 20.26 77.73 12.45 77.76 12.46 79.33 20.75 81.32 21.17 83.27 9.71 81.33 9.31 80.24 17.14 80.21 17.14 78.54 8.83 76.54 8.58 74.59 20.03"/>
    </clipPath>
    <radialGradient id="radial-gradient-39" cx="-60.95" cy="486.75" fx="-60.95" fy="486.75" r="2.27" gradientTransform="translate(3107.42 24528.61) scale(50.32 -50.32)" xlink:href="#radial-gradient"/>
    <clipPath id="clippath-41">
      <polygon class="cls-1" points="84.55 22.06 86.67 22.79 90.4 11.79 88.28 11.08 84.55 22.06"/>
    </clipPath>
    <radialGradient id="radial-gradient-40" cx="-60.94" cy="486.76" fx="-60.94" fy="486.76" r="2.27" gradientTransform="translate(3106.68 24527.57) scale(50.32 -50.32)" xlink:href="#radial-gradient"/>
    <clipPath id="clippath-42">
      <polygon class="cls-1" points="91.25 24.71 93.46 25.84 101.07 16.81 98.95 15.58 93.61 23.02 93.59 23.01 96.45 14.29 94.2 13.28 91.25 24.71"/>
    </clipPath>
    <radialGradient id="radial-gradient-41" cx="-60.95" cy="486.76" fx="-60.95" fy="486.76" r="2.28" gradientTransform="translate(3108.18 24539.51) scale(50.34 -50.34)" xlink:href="#radial-gradient"/>
    <clipPath id="clippath-43">
      <polygon class="cls-1" points="97.72 28.43 101.88 31.56 103.08 29.95 100.71 28.16 102.58 25.68 104.68 27.27 105.8 25.78 103.7 24.2 105.29 22.08 107.5 23.75 108.71 22.16 104.72 19.15 97.72 28.43"/>
    </clipPath>
    <radialGradient id="radial-gradient-42" cx="-60.94" cy="486.76" fx="-60.94" fy="486.76" r="2.27" gradientTransform="translate(3107.32 24531.93) scale(50.33 -50.33)" xlink:href="#radial-gradient"/>
    <clipPath id="clippath-44">
      <path class="cls-1" d="M110.85,31.48l-.27-.29,2.51-2.34c.11.06.28.2.41.35.66.76.42,1.52-.3,2.19-.4.36-.86.57-1.31.57-.38,0-.75-.14-1.05-.48M104.35,33.91l1.6,1.58,3.36-3.12.22.23c.51.55.45,1.1-.45,2.22-.81.99-1.49,1.96-1.64,2.28l1.54,1.87c.17-.45,1.06-1.79,1.85-2.83.75-1,1.02-1.78.71-2.57l.03-.02c1.2.49,2.42.17,3.32-.67.73-.67,1.15-1.35,1.13-2.28-.01-1.02-.58-1.97-1.42-2.87-.57-.62-1.22-1.23-1.72-1.73l-8.53,7.91Z"/>
    </clipPath>
    <radialGradient id="radial-gradient-43" cx="-60.96" cy="486.75" fx="-60.96" fy="486.75" r="2.28" gradientTransform="translate(3107.34 24528.36) scale(50.32 -50.32)" xlink:href="#radial-gradient"/>
    <clipPath id="clippath-45">
      <path class="cls-1" d="M117.13,36.15c-.88.56-1.58,1.72-1.53,3.56,0,1.16-.07,1.81-.77,2.27-.63.41-1.37.27-1.94-.62-.35-.54-.62-1.31-.65-1.83l-1.8.77c.01.44.31,1.33.8,2.1,1.22,1.9,3.22,2.46,4.98,1.32,1.02-.66,1.7-1.76,1.65-3.53-.04-1.46.07-1.95.65-2.31.52-.33,1.26-.26,1.77.54.35.55.46,1.07.47,1.45l1.82-.74c-.02-.39-.24-1.11-.64-1.75-.81-1.25-1.87-1.81-2.93-1.81-.65,0-1.29.2-1.88.58"/>
    </clipPath>
    <radialGradient id="radial-gradient-44" cx="-60.95" cy="486.75" fx="-60.95" fy="486.75" r="2.27" gradientTransform="translate(3107.88 24533.37) scale(50.33 -50.33)" xlink:href="#radial-gradient"/>
    <clipPath id="clippath-46">
      <rect class="cls-1" x="114.52" y="45.42" width="11.56" height="2.24" transform="translate(-8.41 55) rotate(-24.91)"/>
    </clipPath>
    <radialGradient id="radial-gradient-45" cx="-60.95" cy="486.76" fx="-60.95" fy="486.76" r="2.28" gradientTransform="translate(3107.29 24531.36) scale(50.33 -50.33)" xlink:href="#radial-gradient"/>
    <clipPath id="clippath-47">
      <polygon class="cls-1" points="125.64 49.7 126.29 51.63 117.16 54.43 117.82 56.57 126.95 53.77 127.48 55.74 129.46 55.14 127.62 49.1 125.64 49.7"/>
    </clipPath>
    <radialGradient id="radial-gradient-46" cx="-60.95" cy="486.76" fx="-60.95" fy="486.76" r="2.26" gradientTransform="translate(3108.33 24536.5) scale(50.34 -50.34)" xlink:href="#radial-gradient"/>
    <clipPath id="clippath-48">
      <polygon class="cls-1" points="123.38 61.63 119.01 62.17 119.3 64.4 123.74 63.84 131.02 65.54 130.84 63.25 125.43 62.67 125.43 62.64 130.52 60.63 130.12 58.25 123.38 61.63"/>
    </clipPath>
    <radialGradient id="radial-gradient-47" cx="-60.95" cy="486.76" fx="-60.95" fy="486.76" r="2.27" gradientTransform="translate(3106.87 24529.23) scale(50.32 -50.32)" xlink:href="#radial-gradient"/>
    <clipPath id="clippath-49">
      <path class="cls-1" d="M62.57,93.97c-.24-.06-.45-.14-.64-.26-.19-.12-.33-.28-.45-.48-.11-.2-.17-.45-.17-.75s.06-.55.17-.75c.11-.2.26-.36.45-.48.19-.12.4-.21.64-.26.25-.05.49-.07.74-.07s.49.03.74.07c.23.05.45.14.64.26.19.12.34.28.46.48.1.2.15.45.15.75s-.05.55-.15.75c-.12.2-.26.36-.46.48-.19.12-.4.21-.64.26-.25.05-.49.08-.74.08s-.5-.03-.74-.08M62.06,89.59c-.46.13-.88.33-1.25.6-.38.28-.69.61-.91,1.04-.24.42-.35.92-.35,1.51,0,.49.1.9.3,1.25.2.34.46.63.78.85.32.23.68.38,1.07.49.41.1.79.16,1.16.16.49,0,.94-.09,1.38-.27.44-.17.87-.38,1.32-.62-.11,1.83-.97,2.74-2.6,2.74-.17,0-.36-.02-.56-.04-.21-.03-.42-.08-.62-.15-.21-.07-.39-.16-.57-.28-.18-.11-.32-.24-.42-.38-.04-.06-.07-.13-.09-.21-.01-.08-.02-.14-.02-.2l-.19-.11-.94,1.91.13.12c.09-.07.19-.11.29-.11.09,0,.2.05.34.13.13.09.31.18.53.29.22.12.49.21.82.28.32.08.73.11,1.19.11.68,0,1.29-.11,1.84-.33.55-.23,1.02-.55,1.41-.99.39-.44.7-.95.91-1.56.21-.61.32-1.29.32-2.04,0-.63-.1-1.22-.29-1.76-.18-.53-.45-.99-.79-1.38-.34-.39-.76-.69-1.23-.9-.47-.22-1-.32-1.57-.32-.46,0-.92.05-1.39.18"/>
    </clipPath>
    <radialGradient id="radial-gradient-48" cx="-60.79" cy="486.88" fx="-60.79" fy="486.88" r="2.26" gradientTransform="translate(3369.64 26700.43) scale(54.77 -54.77)" xlink:href="#radial-gradient-2"/>
    <clipPath id="clippath-50">
      <path class="cls-1" d="M79.53,93.97c-.25-.06-.46-.14-.65-.26-.18-.12-.33-.28-.44-.48-.1-.2-.16-.45-.16-.75s.06-.55.16-.75c.11-.2.26-.36.44-.48.19-.12.41-.21.65-.26.24-.05.48-.07.73-.07s.49.03.73.07c.24.05.45.14.64.26.19.12.34.28.45.48.11.2.16.45.16.75s-.06.55-.16.75c-.11.2-.26.36-.45.48-.19.12-.4.21-.64.26-.24.05-.48.08-.73.08s-.5-.03-.73-.08M79.02,89.59c-.46.13-.88.33-1.26.6-.38.28-.69.61-.91,1.04-.24.42-.36.92-.36,1.51,0,.49.11.9.3,1.25.2.34.47.63.78.85.32.23.68.38,1.08.49.4.1.78.16,1.16.16.48,0,.94-.09,1.38-.27.44-.17.87-.38,1.32-.62-.11,1.83-.97,2.74-2.6,2.74-.16,0-.35-.02-.56-.04-.21-.03-.42-.08-.62-.15-.2-.07-.39-.16-.57-.28-.17-.11-.31-.24-.42-.38-.04-.06-.06-.13-.08-.21-.02-.08-.02-.14-.02-.2l-.19-.11-.94,1.91.13.12c.08-.07.18-.11.3-.11.08,0,.19.05.33.13.13.09.31.18.53.29.22.12.49.21.82.28.33.08.73.11,1.2.11.67,0,1.29-.11,1.83-.33.55-.23,1.01-.55,1.41-.99.39-.44.71-.95.91-1.56.22-.61.32-1.29.32-2.04,0-.63-.09-1.22-.28-1.76-.19-.53-.45-.99-.8-1.38-.34-.39-.75-.69-1.23-.9-.47-.22-1-.32-1.57-.32-.46,0-.92.05-1.38.18"/>
    </clipPath>
    <radialGradient id="radial-gradient-49" cx="-60.78" cy="486.89" fx="-60.78" fy="486.89" r="2.26" gradientTransform="translate(3369.61 26702.75) scale(54.77 -54.77)" xlink:href="#radial-gradient-2"/>
    <clipPath id="clippath-51">
      <path class="cls-1" d="M70.38,89.61c-.43.13-.78.27-1.04.44-.28.16-.48.31-.62.45-.14.13-.23.2-.29.2-.09,0-.17-.03-.26-.09l-.19.16,1.25,1.77.14-.1c-.02-.06-.03-.12-.05-.19,0-.06-.01-.11-.01-.16,0-.13.07-.27.24-.41.15-.14.35-.27.59-.38.24-.12.51-.22.8-.28.3-.07.58-.1.87-.1.23,0,.47.01.7.04.23.03.45.08.64.16.19.08.34.19.46.34.12.15.18.32.18.56s-.07.45-.2.6c-.14.16-.3.29-.49.39-.19.08-.39.15-.61.18-.22.04-.41.05-.58.05-.26,0-.48-.03-.68-.11-.2-.08-.32-.23-.33-.46h-.19v2.37h.19c.06-.22.18-.34.36-.39.18-.06.4-.08.66-.08.17,0,.39,0,.63.05.25.03.47.09.69.17.22.1.4.22.55.4.14.16.22.39.22.67s-.08.52-.24.71c-.16.18-.35.32-.57.43-.22.11-.46.18-.71.22-.26.04-.48.06-.66.06-.24,0-.53-.04-.89-.11-.34-.08-.68-.19-1-.33-.32-.15-.58-.32-.82-.53-.23-.21-.34-.45-.34-.71v-.12c0-.06,0-.09.02-.12l-.17-.1-.91,2.49.14.05s.08-.04.12-.07c.04-.02.08-.03.13-.03.08,0,.23.05.43.15.2.12.46.24.77.37.31.13.67.26,1.08.35.41.1.85.14,1.32.14.41,0,.86-.04,1.33-.11.48-.08.91-.22,1.31-.45.38-.23.72-.53.98-.91.27-.38.4-.87.4-1.46,0-.52-.15-.95-.43-1.3-.28-.34-.65-.57-1.09-.68v-.04c.38-.09.67-.32.9-.68.22-.35.32-.73.32-1.15,0-.45-.11-.83-.32-1.15-.21-.32-.49-.58-.83-.78-.34-.21-.7-.35-1.11-.45-.41-.09-.82-.13-1.22-.13-.61,0-1.12.07-1.54.2"/>
    </clipPath>
    <radialGradient id="radial-gradient-50" cx="-60.78" cy="486.88" fx="-60.78" fy="486.88" r="2.26" gradientTransform="translate(3369.45 26700.18) scale(54.77 -54.77)" xlink:href="#radial-gradient-2"/>
    <clipPath id="clippath-52">
      <path class="cls-1" d="M56,89.41v.2c.12.03.21.06.27.11.07.04.1.15.1.31,0,.17-.05.32-.18.45-.12.12-.27.18-.44.18-.09,0-.17-.02-.27-.06-.09-.04-.14-.11-.14-.22h-.19v2.19h.19c.03-.09.08-.16.16-.22.08-.05.16-.09.26-.12.09-.03.19-.05.29-.06.1-.02.18-.02.25-.02v5.8c0,.2-.04.33-.12.39-.08.06-.16.1-.27.1v.21h2.57v-.21c-.11,0-.2-.04-.28-.1-.09-.07-.13-.19-.13-.39v-7.96c0-.12.04-.2.13-.26.08-.06.19-.1.31-.12v-.2h-2.52Z"/>
    </clipPath>
    <radialGradient id="radial-gradient-51" cx="-60.78" cy="486.89" fx="-60.78" fy="486.89" r="2.27" gradientTransform="translate(3369.68 26701.56) scale(54.77 -54.77)" xlink:href="#radial-gradient-2"/>
  </defs>
  <g id="Layer_1-2" data-name="Layer 1">
    <g class="cls-107">
      <rect class="cls-11" x=".26" y=".27" width="138.84" height="138.84"/>
    </g>
    <g class="cls-56">
      <rect class="cls-9" width="139.37" height="139.38"/>
    </g>
    <g class="cls-59">
      <rect class="cls-12" x="-24.61" y="-24.6" width="188.59" height="188.59" transform="translate(-28.87 69.69) rotate(-45)"/>
    </g>
    <g class="cls-57">
      <rect class="cls-8" x="3.84" y="3.83" width="131.71" height="131.71"/>
    </g>
    <g class="cls-58">
      <rect class="cls-10" x="4.69" y="4.7" width="129.99" height="129.99" transform="translate(-28.87 69.68) rotate(-45)"/>
    </g>
    <g class="cls-64">
      <rect class="cls-5" x="24.85" y="24.81" width="89.66" height="89.67"/>
    </g>
    <g class="cls-61">
      <rect class="cls-4" x="38.69" y="49.35" width="61.63" height="28.01"/>
    </g>
    <g class="cls-60">
      <rect class="cls-3" x="36.27" y="47.15" width="66.52" height="32.77"/>
    </g>
    <g class="cls-63">
      <rect class="cls-2" x="49.82" y="55.24" width="39.79" height="18.3"/>
    </g>
    <g class="cls-62">
      <polygon class="cls-7" points="125.27 75.95 126.09 82.62 123.03 82.99 122.22 76.32 125.27 75.95"/>
    </g>
    <g class="cls-18">
      <polygon class="cls-6" points="130.55 79.79 131.69 89.15 123.07 90.2 121.93 80.85 130.55 79.79"/>
    </g>
    <g class="cls-15">
      <rect class="cls-69" x="118.44" y="79.6" width="5" height="9.54" transform="translate(-9.36 15.33) rotate(-6.98)"/>
    </g>
    <g class="cls-22">
      <rect class="cls-72" x="118.56" y="89.82" width="9.86" height="8.13" transform="translate(-10.53 15.76) rotate(-7.01)"/>
    </g>
    <g class="cls-20">
      <rect class="cls-66" x="115.78" y="87.33" width="4.11" height="9.71" transform="translate(-10.31 14.97) rotate(-6.97)"/>
    </g>
    <g class="cls-21">
      <rect class="cls-68" x="101.26" y="113.16" width="11.02" height="5.36" transform="translate(-13.18 13.71) rotate(-6.92)"/>
    </g>
    <g class="cls-19">
      <rect class="cls-67" x="99.7" y="106.91" width="5.67" height="9.49" transform="translate(-12.8 13.28) rotate(-6.97)"/>
    </g>
    <g class="cls-16">
      <rect class="cls-74" x="93.38" y="118.59" width="10.64" height="4.37" transform="translate(-13.91 12.85) rotate(-6.96)"/>
    </g>
    <g class="cls-13">
      <rect class="cls-65" x="92.51" y="111.51" width="6.46" height="8.6" transform="translate(-13.37 12.5) rotate(-6.99)"/>
    </g>
    <g class="cls-17">
      <rect class="cls-70" x="79.11" y="115.97" width="15.34" height="15.02" transform="translate(-14.37 11.46) rotate(-6.98)"/>
    </g>
    <g class="cls-14">
      <rect class="cls-73" x="105.97" y="95.22" width="16.54" height="16.41" transform="translate(-11.71 14.63) rotate(-6.97)"/>
    </g>
    <g class="cls-40">
      <rect class="cls-71" x="12.28" y="77.93" width="6.72" height="3.07" transform="translate(-65.14 85.39) rotate(-83.06)"/>
    </g>
    <g class="cls-41">
      <polygon class="cls-93" points="9.25 79.79 8.1 89.15 16.72 90.2 17.86 80.85 9.25 79.79"/>
    </g>
    <g class="cls-42">
      <rect class="cls-98" x="14.08" y="81.87" width="9.54" height="5" transform="translate(-67.18 92.85) rotate(-83.03)"/>
    </g>
    <g class="cls-43">
      <rect class="cls-90" x="12.23" y="88.95" width="8.13" height="9.86" transform="translate(-78.87 98.64) rotate(-83.01)"/>
    </g>
    <g class="cls-44">
      <rect class="cls-92" x="17.1" y="90.13" width="9.71" height="4.11" transform="translate(-72.22 102.73) rotate(-83)"/>
    </g>
    <g class="cls-45">
      <rect class="cls-94" x="30.35" y="110.33" width="5.36" height="11.01" transform="translate(-85.98 134.49) rotate(-82.99)"/>
    </g>
    <g class="cls-38">
      <rect class="cls-85" x="32.51" y="108.82" width="9.49" height="5.68" transform="translate(-78.1 135.08) rotate(-83.03)"/>
    </g>
    <g class="cls-36">
      <rect class="cls-95" x="38.9" y="115.45" width="4.37" height="10.65" transform="translate(-83.78 146.92) rotate(-83.04)"/>
    </g>
    <g class="cls-39">
      <rect class="cls-97" x="39.74" y="112.58" width="8.6" height="6.46" transform="translate(-76.25 145.51) rotate(-83.04)"/>
    </g>
    <g class="cls-37">
      <rect class="cls-91" x="45.5" y="115.81" width="15.02" height="15.34" transform="translate(-76 161.09) rotate(-83.02)"/>
    </g>
    <g class="cls-32">
      <rect class="cls-96" x="17.34" y="95.16" width="16.41" height="16.54" transform="translate(-80.22 116.24) rotate(-83.03)"/>
    </g>
    <g class="cls-26">
      <rect class="cls-104" x="67.36" y="124" width="4.66" height="4.66"/>
    </g>
    <g class="cls-27">
      <rect class="cls-103" x="8.42" y="58.13" width="12.42" height="8.28"/>
    </g>
    <g class="cls-28">
      <rect class="cls-102" x="11.1" y="48.59" width="12.68" height="8.67"/>
    </g>
    <g class="cls-29">
      <rect class="cls-101" x="14.76" y="36.11" width="13.52" height="11.71"/>
    </g>
    <g class="cls-30">
      <rect class="cls-89" x="20.61" y="27.06" width="11.9" height="11.11"/>
    </g>
    <g class="cls-33">
      <rect class="cls-88" x="29.12" y="21.78" width="11.37" height="12.33"/>
    </g>
    <g class="cls-34">
      <rect class="cls-106" x="36.95" y="14.31" width="11.64" height="13.5"/>
    </g>
    <g class="cls-35">
      <rect class="cls-105" x="48.09" y="10.41" width="9.48" height="11.93"/>
    </g>
    <g class="cls-31">
      <rect class="cls-100" x="64.25" y="8.21" width="7.01" height="11.78"/>
    </g>
    <g class="cls-52">
      <rect class="cls-99" x="74.59" y="8.58" width="8.69" height="12.58"/>
    </g>
    <g class="cls-46">
      <rect class="cls-81" x="84.55" y="11.08" width="5.85" height="11.71"/>
    </g>
    <g class="cls-47">
      <rect class="cls-82" x="91.25" y="13.28" width="9.82" height="12.55"/>
    </g>
    <g class="cls-48">
      <rect class="cls-80" x="97.72" y="19.15" width="10.99" height="12.41"/>
    </g>
    <g class="cls-49">
      <rect class="cls-78" x="104.35" y="26" width="11.69" height="12.98"/>
    </g>
    <g class="cls-50">
      <rect class="cls-77" x="110.44" y="35.57" width="12.14" height="9.29"/>
    </g>
    <g class="cls-53">
      <rect class="cls-84" x="114.59" y="43.08" width="11.43" height="6.91"/>
    </g>
    <g class="cls-54">
      <rect class="cls-83" x="117.16" y="49.1" width="12.3" height="7.47"/>
    </g>
    <g class="cls-55">
      <rect class="cls-76" x="119.01" y="58.25" width="12.01" height="7.29"/>
    </g>
    <g class="cls-51">
      <rect class="cls-75" x="59.54" y="89.41" width="7.79" height="9.28"/>
    </g>
    <g class="cls-23">
      <rect class="cls-79" x="76.49" y="89.41" width="7.79" height="9.28"/>
    </g>
    <g class="cls-25">
      <rect class="cls-87" x="67.7" y="89.41" width="8" height="9.28"/>
    </g>
    <g class="cls-24">
      <rect class="cls-86" x="55.14" y="89.41" width="3.37" height="9.24"/>
    </g>
  </g>
</svg>