<?xml version="1.0" encoding="UTF-8"?>
<svg id="Layer_1" data-name="Layer 1" xmlns="http://www.w3.org/2000/svg" xmlns:xlink="http://www.w3.org/1999/xlink" viewBox="0 0 334.18 64.37">
  <defs>
    <style>
      .cls-1 {
        fill: none;
      }

      .cls-2 {
        fill: url(#radial-gradient-7);
      }

      .cls-3 {
        fill: url(#radial-gradient-6);
      }

      .cls-4 {
        fill: url(#radial-gradient-5);
      }

      .cls-5 {
        fill: url(#radial-gradient-4);
      }

      .cls-6 {
        fill: url(#radial-gradient-9);
      }

      .cls-7 {
        fill: url(#radial-gradient-8);
      }

      .cls-8 {
        fill: url(#radial-gradient-3);
      }

      .cls-9 {
        fill: url(#radial-gradient-2);
      }

      .cls-10 {
        fill: url(#linear-gradient-2);
      }

      .cls-11 {
        fill: url(#radial-gradient);
      }

      .cls-12 {
        fill: url(#linear-gradient);
      }

      .cls-13 {
        clip-path: url(#clippath-17);
      }

      .cls-14 {
        clip-path: url(#clippath-19);
      }

      .cls-15 {
        clip-path: url(#clippath-11);
      }

      .cls-16 {
        clip-path: url(#clippath-16);
      }

      .cls-17 {
        clip-path: url(#clippath-18);
      }

      .cls-18 {
        clip-path: url(#clippath-10);
      }

      .cls-19 {
        clip-path: url(#clippath-15);
      }

      .cls-20 {
        clip-path: url(#clippath-13);
      }

      .cls-21 {
        clip-path: url(#clippath-14);
      }

      .cls-22 {
        clip-path: url(#clippath-12);
      }

      .cls-23 {
        clip-path: url(#clippath-50);
      }

      .cls-24 {
        clip-path: url(#clippath-52);
      }

      .cls-25 {
        clip-path: url(#clippath-51);
      }

      .cls-26 {
        clip-path: url(#clippath-31);
      }

      .cls-27 {
        clip-path: url(#clippath-32);
      }

      .cls-28 {
        clip-path: url(#clippath-33);
      }

      .cls-29 {
        clip-path: url(#clippath-34);
      }

      .cls-30 {
        clip-path: url(#clippath-35);
      }

      .cls-31 {
        clip-path: url(#clippath-39);
      }

      .cls-32 {
        clip-path: url(#clippath-30);
      }

      .cls-33 {
        clip-path: url(#clippath-36);
      }

      .cls-34 {
        clip-path: url(#clippath-37);
      }

      .cls-35 {
        clip-path: url(#clippath-38);
      }

      .cls-36 {
        clip-path: url(#clippath-27);
      }

      .cls-37 {
        clip-path: url(#clippath-29);
      }

      .cls-38 {
        clip-path: url(#clippath-26);
      }

      .cls-39 {
        clip-path: url(#clippath-28);
      }

      .cls-40 {
        clip-path: url(#clippath-20);
      }

      .cls-41 {
        clip-path: url(#clippath-21);
      }

      .cls-42 {
        clip-path: url(#clippath-22);
      }

      .cls-43 {
        clip-path: url(#clippath-23);
      }

      .cls-44 {
        clip-path: url(#clippath-24);
      }

      .cls-45 {
        clip-path: url(#clippath-25);
      }

      .cls-46 {
        clip-path: url(#clippath-41);
      }

      .cls-47 {
        clip-path: url(#clippath-42);
      }

      .cls-48 {
        clip-path: url(#clippath-43);
      }

      .cls-49 {
        clip-path: url(#clippath-44);
      }

      .cls-50 {
        clip-path: url(#clippath-45);
      }

      .cls-51 {
        clip-path: url(#clippath-49);
      }

      .cls-52 {
        clip-path: url(#clippath-40);
      }

      .cls-53 {
        clip-path: url(#clippath-46);
      }

      .cls-54 {
        clip-path: url(#clippath-47);
      }

      .cls-55 {
        clip-path: url(#clippath-48);
      }

      .cls-56 {
        clip-path: url(#clippath-1);
      }

      .cls-57 {
        clip-path: url(#clippath-3);
      }

      .cls-58 {
        clip-path: url(#clippath-4);
      }

      .cls-59 {
        clip-path: url(#clippath-2);
      }

      .cls-60 {
        clip-path: url(#clippath-7);
      }

      .cls-61 {
        clip-path: url(#clippath-6);
      }

      .cls-62 {
        clip-path: url(#clippath-9);
      }

      .cls-63 {
        clip-path: url(#clippath-8);
      }

      .cls-64 {
        clip-path: url(#clippath-5);
      }

      .cls-65 {
        fill: url(#radial-gradient-16);
      }

      .cls-66 {
        fill: url(#radial-gradient-12);
      }

      .cls-67 {
        fill: url(#radial-gradient-14);
      }

      .cls-68 {
        fill: url(#radial-gradient-13);
      }

      .cls-69 {
        fill: url(#radial-gradient-10);
      }

      .cls-70 {
        fill: url(#radial-gradient-17);
      }

      .cls-71 {
        fill: url(#radial-gradient-19);
      }

      .cls-72 {
        fill: url(#radial-gradient-11);
      }

      .cls-73 {
        fill: url(#radial-gradient-18);
      }

      .cls-74 {
        fill: url(#radial-gradient-15);
      }

      .cls-75 {
        fill: url(#radial-gradient-48);
      }

      .cls-76 {
        fill: url(#radial-gradient-47);
      }

      .cls-77 {
        fill: url(#radial-gradient-44);
      }

      .cls-78 {
        fill: url(#radial-gradient-43);
      }

      .cls-79 {
        fill: url(#radial-gradient-49);
      }

      .cls-80 {
        fill: url(#radial-gradient-42);
      }

      .cls-81 {
        fill: url(#radial-gradient-40);
      }

      .cls-82 {
        fill: url(#radial-gradient-41);
      }

      .cls-83 {
        fill: url(#radial-gradient-46);
      }

      .cls-84 {
        fill: url(#radial-gradient-45);
      }

      .cls-85 {
        fill: url(#radial-gradient-25);
      }

      .cls-86 {
        fill: url(#radial-gradient-51);
      }

      .cls-87 {
        fill: url(#radial-gradient-50);
      }

      .cls-88 {
        fill: url(#radial-gradient-35);
      }

      .cls-89 {
        fill: url(#radial-gradient-34);
      }

      .cls-90 {
        fill: url(#radial-gradient-22);
      }

      .cls-91 {
        fill: url(#radial-gradient-28);
      }

      .cls-92 {
        fill: url(#radial-gradient-23);
      }

      .cls-93 {
        fill: url(#radial-gradient-20);
      }

      .cls-94 {
        fill: url(#radial-gradient-24);
      }

      .cls-95 {
        fill: url(#radial-gradient-26);
      }

      .cls-96 {
        fill: url(#radial-gradient-29);
      }

      .cls-97 {
        fill: url(#radial-gradient-27);
      }

      .cls-98 {
        fill: url(#radial-gradient-21);
      }

      .cls-99 {
        fill: url(#radial-gradient-39);
      }

      .cls-100 {
        fill: url(#radial-gradient-38);
      }

      .cls-101 {
        fill: url(#radial-gradient-33);
      }

      .cls-102 {
        fill: url(#radial-gradient-32);
      }

      .cls-103 {
        fill: url(#radial-gradient-31);
      }

      .cls-104 {
        fill: url(#radial-gradient-30);
      }

      .cls-105 {
        fill: url(#radial-gradient-37);
      }

      .cls-106 {
        fill: url(#radial-gradient-36);
      }

      .cls-107 {
        fill: #fff;
      }

      .cls-108 {
        clip-path: url(#clippath);
      }
    </style>
    <clipPath id="clippath">
      <path class="cls-1" d="M15.43,32.18c0,9.25,7.5,16.75,16.76,16.75s16.75-7.5,16.75-16.75-7.5-16.75-16.75-16.75-16.76,7.5-16.76,16.75"/>
    </clipPath>
    <radialGradient id="radial-gradient" cx="-43.2" cy="451.47" fx="-43.2" fy="451.47" r=".55" gradientTransform="translate(2199.15 22745.77) scale(50.33 -50.33)" gradientUnits="userSpaceOnUse">
      <stop offset="0" stop-color="#fff"/>
      <stop offset=".26" stop-color="#fff"/>
      <stop offset=".43" stop-color="#e3e4e4"/>
      <stop offset=".9" stop-color="#9c9ea1"/>
      <stop offset="1" stop-color="#9c9ea1"/>
    </radialGradient>
    <clipPath id="clippath-1">
      <path class="cls-1" d="M15.49,32.18c0-9.2,7.49-16.69,16.69-16.69s16.69,7.49,16.69,16.69-7.49,16.69-16.69,16.69-16.69-7.49-16.69-16.69M15.37,32.18c0,9.27,7.54,16.82,16.82,16.82s16.82-7.55,16.82-16.82-7.55-16.82-16.82-16.82-16.82,7.55-16.82,16.82"/>
    </clipPath>
    <radialGradient id="radial-gradient-2" cx="-43.16" cy="451.5" fx="-43.16" fy="451.5" r=".55" gradientTransform="translate(2224.89 23040.86) scale(50.98 -50.98)" gradientUnits="userSpaceOnUse">
      <stop offset="0" stop-color="#88addb"/>
      <stop offset=".06" stop-color="#6a96c9"/>
      <stop offset=".19" stop-color="#326ca8"/>
      <stop offset=".25" stop-color="#1d5c9b"/>
      <stop offset=".57" stop-color="#004c85"/>
      <stop offset=".73" stop-color="#002962"/>
      <stop offset=".9" stop-color="#000c45"/>
      <stop offset="1" stop-color="#00013a"/>
    </radialGradient>
    <clipPath id="clippath-2">
      <path class="cls-1" d="M16.09,32.18c0,8.89,7.21,16.09,16.09,16.09s16.09-7.2,16.09-16.09-7.21-16.09-16.09-16.09-16.09,7.21-16.09,16.09"/>
    </clipPath>
    <linearGradient id="linear-gradient" x1="-40.72" y1="450.71" x2="-40.17" y2="450.71" gradientTransform="translate(-26483.42 2411.9) rotate(90) scale(58.83 -58.83)" gradientUnits="userSpaceOnUse">
      <stop offset="0" stop-color="#bbbdbf"/>
      <stop offset=".19" stop-color="#a3a4a6"/>
      <stop offset=".55" stop-color="#7a7b7d"/>
      <stop offset=".83" stop-color="#616264"/>
      <stop offset="1" stop-color="#58595b"/>
    </linearGradient>
    <clipPath id="clippath-3">
      <path class="cls-1" d="M16.29,32.18c0,8.78,7.12,15.89,15.89,15.89s15.9-7.11,15.9-15.89-7.12-15.9-15.9-15.9-15.89,7.12-15.89,15.9"/>
    </clipPath>
    <radialGradient id="radial-gradient-3" cx="-43" cy="451.64" fx="-43" fy="451.64" r=".55" gradientTransform="translate(2365.89 24612.88) scale(54.44 -54.44)" xlink:href="#radial-gradient-2"/>
    <clipPath id="clippath-4">
      <path class="cls-1" d="M21.09,32.18c0,6.13,4.97,11.09,11.09,11.09s11.09-4.97,11.09-11.09-4.97-11.09-11.09-11.09-11.09,4.97-11.09,11.09"/>
    </clipPath>
    <linearGradient id="linear-gradient-2" x1="-39.61" y1="458" x2="-39.06" y2="458" gradientTransform="translate(18538.54 -1557.78) rotate(-90) scale(40.41 -40.41)" gradientUnits="userSpaceOnUse">
      <stop offset="0" stop-color="#fff"/>
      <stop offset=".16" stop-color="#ddd"/>
      <stop offset=".44" stop-color="#a4a4a5"/>
      <stop offset=".69" stop-color="#7a7b7d"/>
      <stop offset=".88" stop-color="#616264"/>
      <stop offset="1" stop-color="#58595b"/>
    </linearGradient>
    <clipPath id="clippath-5">
      <path class="cls-1" d="M21.36,32.17c0,5.98,4.85,10.82,10.82,10.82s10.82-4.85,10.82-10.82-4.84-10.82-10.82-10.82-10.82,4.85-10.82,10.82"/>
    </clipPath>
    <radialGradient id="radial-gradient-4" cx="-43.2" cy="451.46" fx="-43.2" fy="451.46" r=".55" gradientTransform="translate(2199.38 22744.75) scale(50.33 -50.33)" xlink:href="#radial-gradient"/>
    <clipPath id="clippath-6">
      <path class="cls-1" d="M36.98,27.28v.53h-6.49v-.53h-1.55v.53h-4.07v1.37h1.22c-.85.37-1.4,1.18-1.4,2.36,0,1.59,1.49,2.49,2.7,2.49h4.49v-.48h1.27v.48h6.42v-1.37h-1.06v-3.48h1.06v-1.37h-1.06v-.53h-1.55Z"/>
    </clipPath>
    <radialGradient id="radial-gradient-5" cx="-44.16" cy="450.72" fx="-44.16" fy="450.72" r=".55" gradientTransform="translate(1674.29 16848.05) scale(37.33 -37.33)" xlink:href="#radial-gradient-2"/>
    <clipPath id="clippath-7">
      <path class="cls-1" d="M36.62,27.44v-.56c.12,0,2.25,0,2.38,0v.56h1.04c0,.12,0,2,0,2.13h-1.08v2.8h1.07c0,.12,0,2.03,0,2.15-.13,0-7.06-.01-7.19-.01v-.49h-.55v.5h-4.91c-.96,0-1.88-.42-2.41-1.1-.45-.53-.72-1.21-.72-1.83,0-.82.21-1.45.66-1.96l.1-.11s-.45,0-.54,0v-2.07h4.12v-.56c.12,0,2.22,0,2.34,0v.55h5.69ZM36.49,26.75v.56h-5.43v-.55h-2.61s0,.55,0,.55h-4.12v2.34s.27,0,.4,0c-.41.52-.61,1.14-.61,1.94,0,.65.28,1.37.75,1.92.55.71,1.51,1.16,2.51,1.16h5.04v-.5h.29v.49h7.46s0-2.41,0-2.41h-1.07v-2.53h1.08v-2.39s-1.04,0-1.04,0v-.56h-2.64Z"/>
    </clipPath>
    <radialGradient id="radial-gradient-6" cx="-43.17" cy="451.49" fx="-43.17" fy="451.49" r=".55" gradientTransform="translate(2202.88 22806.86) scale(50.46 -50.46)" xlink:href="#radial-gradient-2"/>
    <clipPath id="clippath-8">
      <path class="cls-1" d="M27.88,31.48v.84c0,.42.27.68.72.68h2.15s0-.36,0-.36h-2.19v-1.16h-.68ZM27.99,30.26c0-.36.25-.64.56-.64s.56.27.56.64-.25.64-.56.64-.56-.27-.56-.64M27.39,29.21v.36h.44c-.26.16-.43.41-.43.69,0,.49.49.88,1.15.88s1.15-.39,1.15-.88c0-.28-.16-.53-.42-.69h.44v-.36h-2.31ZM33.8,29.79c0-.42.27-.71.61-.71s.61.28.61.71-.27.71-.61.71-.61-.28-.61-.71M33.16,29.79c0,.56.54,1.02,1.25,1.02s1.25-.46,1.25-1.02-.54-1.02-1.25-1.02-1.25.46-1.25,1.02M27.93,29.06h1.23v-.36h-1.23v.36ZM30.09,28.7v2.96h.63v-1.54h.51v-.36h-.51v-1.06h-.63ZM34.38,32.11c0-.41.34-.66.73-.66s.73.25.73.66-.34.65-.73.65-.73-.25-.73-.65M35.83,28.7v2.57c-.21-.1-.46-.16-.73-.16-.75,0-1.35.45-1.35,1.01,0,.55.6,1,1.35,1s1.35-.45,1.35-1h0v-1.63h.53v-.36h-.53v-.52h.53v-.36h-.53v-.53h-.63Z"/>
    </clipPath>
    <radialGradient id="radial-gradient-7" cx="-43.19" cy="451.47" fx="-43.19" fy="451.47" r=".55" gradientTransform="translate(2198.97 22745.59) scale(50.33 -50.33)" gradientUnits="userSpaceOnUse">
      <stop offset="0" stop-color="#fff"/>
      <stop offset=".1" stop-color="#fff"/>
      <stop offset=".24" stop-color="#f4f5f5"/>
      <stop offset=".49" stop-color="#d9dbdd"/>
      <stop offset=".8" stop-color="#acb0b5"/>
      <stop offset="1" stop-color="#8d9399"/>
    </radialGradient>
    <clipPath id="clippath-9">
      <path class="cls-1" d="M45.06,34.54c0,.43.27.79.27.79,0,0,.28-.35.28-.78,0-.43-.26-.79-.26-.79,0,0-.28.35-.28.78"/>
    </clipPath>
    <radialGradient id="radial-gradient-8" cx="-38.61" cy="450.75" fx="-38.61" fy="450.75" r=".54" gradientTransform="translate(-22648.53 1944.3) rotate(90.05) scale(50.3 -50.3)" xlink:href="#radial-gradient"/>
    <clipPath id="clippath-10">
      <path class="cls-1" d="M45.67,35.56c-.52.59-.63,1.35-.63,1.35,0,0,.74-.2,1.26-.79.52-.59.6-1.27.6-1.27,0,0-.71.13-1.23.72"/>
    </clipPath>
    <radialGradient id="radial-gradient-9" cx="-38.61" cy="450.73" fx="-38.61" fy="450.73" r=".55" gradientTransform="translate(-22654.63 1962.76) rotate(90) scale(50.32 -50.32)" xlink:href="#radial-gradient"/>
    <clipPath id="clippath-11">
      <path class="cls-1" d="M44.23,35.73c.15.65.61,1.1.61,1.1,0,0,.19-.54.04-1.19-.15-.65-.62-1.01-.62-1.01,0,0-.18.45-.03,1.1"/>
    </clipPath>
    <radialGradient id="radial-gradient-10" cx="-38.62" cy="450.72" fx="-38.62" fy="450.72" r=".55" gradientTransform="translate(-22661.4 1964.1) rotate(90) scale(50.34 -50.34)" xlink:href="#radial-gradient"/>
    <clipPath id="clippath-12">
      <path class="cls-1" d="M44.93,37.66c-.62.49-.85,1.22-.85,1.22,0,0,.76-.07,1.38-.56.62-.49.81-1.15.81-1.15,0,0-.72,0-1.34.49"/>
    </clipPath>
    <radialGradient id="radial-gradient-11" cx="-38.6" cy="450.73" fx="-38.6" fy="450.73" r=".55" gradientTransform="translate(-22654.51 1953.29) rotate(90.03) scale(50.32 -50.32)" xlink:href="#radial-gradient"/>
    <clipPath id="clippath-13">
      <path class="cls-1" d="M43.48,37.56c.04.67.41,1.19.41,1.19,0,0,.28-.5.24-1.17-.04-.67-.43-1.1-.43-1.1,0,0-.25.42-.22,1.08"/>
    </clipPath>
    <radialGradient id="radial-gradient-12" cx="-38.62" cy="450.74" fx="-38.62" fy="450.74" r=".55" gradientTransform="translate(-22660.88 1970.08) rotate(89.99) scale(50.34 -50.34)" xlink:href="#radial-gradient"/>
    <clipPath id="clippath-14">
      <path class="cls-1" d="M41.08,42.88c-.72.17-1.22.69-1.22.69,0,0,.68.25,1.4.09.73-.17,1.16-.65,1.16-.65,0,0-.37-.18-.88-.18-.14,0-.3.01-.45.05"/>
    </clipPath>
    <radialGradient id="radial-gradient-13" cx="-38.62" cy="450.73" fx="-38.62" fy="450.73" r=".55" gradientTransform="translate(-22668.62 1990.51) rotate(89.94) scale(50.36 -50.36)" xlink:href="#radial-gradient"/>
    <clipPath id="clippath-15">
      <path class="cls-1" d="M39.82,42.13c-.26.63-.15,1.27-.15,1.27,0,0,.48-.34.74-.97.26-.63.08-1.2.08-1.2,0,0-.41.27-.68.9"/>
    </clipPath>
    <radialGradient id="radial-gradient-14" cx="-38.61" cy="450.73" fx="-38.61" fy="450.73" r=".55" gradientTransform="translate(-22662.14 1967.48) rotate(90) scale(50.34 -50.34)" xlink:href="#radial-gradient"/>
    <clipPath id="clippath-16">
      <path class="cls-1" d="M37.94,44.51s.57.38,1.28.38c.71,0,1.22-.35,1.22-.35,0,0-.5-.4-1.21-.41h-.01c-.7,0-1.27.37-1.27.37"/>
    </clipPath>
    <radialGradient id="radial-gradient-15" cx="-38.62" cy="450.72" fx="-38.62" fy="450.72" r=".55" gradientTransform="translate(-22659.96 1972.74) rotate(89.98) scale(50.34 -50.34)" xlink:href="#radial-gradient"/>
    <clipPath id="clippath-17">
      <path class="cls-1" d="M38.24,43.07c-.4.55-.43,1.21-.43,1.21,0,0,.54-.22.94-.78.4-.55.36-1.15.36-1.15,0,0-.47.17-.86.72"/>
    </clipPath>
    <radialGradient id="radial-gradient-16" cx="-38.6" cy="450.93" fx="-38.6" fy="450.93" r=".55" gradientTransform="translate(-22661.21 1961.32) rotate(90.01) scale(50.32 -50.32)" xlink:href="#radial-gradient"/>
    <clipPath id="clippath-18">
      <path class="cls-1" d="M36.11,45.52c-.22-.11-.31-.38-.21-.6.11-.22.38-.31.6-.2.22.11.31.38.2.6-.08.16-.24.25-.4.25-.07,0-.13-.01-.2-.05M36.28,44.18c-.09.18-.13.36-.12.51-.09-.12-.23-.25-.4-.33-.37-.18-.9-.22-1.01,0-.11.22.24.61.61.8.18.09.36.13.51.12-.12.09-.25.23-.33.4-.18.37-.22.9,0,1.01.22.11.61-.24.79-.61.09-.18.13-.36.12-.51.09.12.23.24.41.33.37.18.9.22,1,0,.11-.22-.24-.61-.61-.8-.18-.09-.36-.12-.51-.12.13-.09.24-.23.33-.41.18-.37.22-.9,0-1.01-.03-.01-.06-.02-.09-.02-.22,0-.55.31-.71.63"/>
    </clipPath>
    <radialGradient id="radial-gradient-17" cx="-38.6" cy="450.72" fx="-38.6" fy="450.72" r=".55" gradientTransform="translate(-22652.34 1963.53) rotate(90) scale(50.32 -50.32)" xlink:href="#radial-gradient"/>
    <clipPath id="clippath-19">
      <path class="cls-1" d="M42.49,40.38c-.04-.25.14-.48.39-.52.25-.03.48.14.52.39.04.25-.13.48-.39.52-.02,0-.04,0-.07,0-.22,0-.42-.16-.45-.39M42.69,38.55c-.25.04-.38.56-.32.98.03.2.1.38.2.5-.15-.06-.34-.08-.53-.05-.42.06-.89.33-.85.58.03.25.56.38.98.32.2-.03.38-.1.5-.2-.06.15-.08.34-.05.54.06.42.33.88.58.85.25-.03.38-.56.32-.98-.03-.2-.1-.38-.2-.5.15.06.34.08.53.05.42-.06.89-.34.85-.58-.04-.25-.56-.38-.98-.32-.2.03-.38.1-.5.2.06-.14.08-.33.05-.53-.06-.41-.31-.85-.55-.85h-.03"/>
    </clipPath>
    <radialGradient id="radial-gradient-18" cx="-38.61" cy="450.74" fx="-38.61" fy="450.74" r=".55" gradientTransform="translate(-22661.38 1968.47) rotate(89.99) scale(50.34 -50.34)" xlink:href="#radial-gradient"/>
    <clipPath id="clippath-20">
      <path class="cls-1" d="M18.87,34.55c0,.43.28.78.28.78,0,0,.27-.35.27-.79,0-.43-.28-.78-.28-.78,0,0-.27.35-.26.79"/>
    </clipPath>
    <radialGradient id="radial-gradient-19" cx="-37.96" cy="456.11" fx="-37.96" fy="456.11" r=".55" gradientTransform="translate(-1895.19 23006.36) rotate(-179.96) scale(50.36)" xlink:href="#radial-gradient"/>
    <clipPath id="clippath-21">
      <path class="cls-1" d="M18.17,36.12c.52.59,1.26.79,1.26.79,0,0-.11-.76-.63-1.35-.52-.59-1.23-.72-1.23-.72,0,0,.08.68.6,1.27"/>
    </clipPath>
    <radialGradient id="radial-gradient-20" cx="-37.95" cy="456.13" fx="-37.95" fy="456.13" r=".55" gradientTransform="translate(-1873.06 23001.8) rotate(179.99) scale(50.34)" xlink:href="#radial-gradient"/>
    <clipPath id="clippath-22">
      <path class="cls-1" d="M19.59,35.64c-.15.65.04,1.19.04,1.19,0,0,.46-.45.61-1.1.15-.65-.03-1.1-.03-1.1,0,0-.47.36-.62,1.01"/>
    </clipPath>
    <radialGradient id="radial-gradient-21" cx="-37.96" cy="456.1" fx="-37.96" fy="456.1" r=".55" gradientTransform="translate(-1880.84 22991.76) rotate(-179.99) scale(50.32)" xlink:href="#radial-gradient"/>
    <clipPath id="clippath-23">
      <path class="cls-1" d="M19.02,38.32c.62.49,1.38.56,1.38.56,0,0-.24-.73-.85-1.22-.62-.49-1.34-.49-1.34-.49,0,0,.2.66.81,1.15"/>
    </clipPath>
    <radialGradient id="radial-gradient-22" cx="-37.94" cy="456.32" fx="-37.94" fy="456.32" r=".55" gradientTransform="translate(-1871.59 23006.06) rotate(179.99) scale(50.32)" xlink:href="#radial-gradient"/>
    <clipPath id="clippath-24">
      <path class="cls-1" d="M20.34,37.58c-.03.67.24,1.17.24,1.17,0,0,.37-.52.41-1.19.03-.67-.22-1.08-.22-1.08,0,0-.4.43-.44,1.1"/>
    </clipPath>
    <radialGradient id="radial-gradient-23" cx="-37.96" cy="456.11" fx="-37.96" fy="456.11" r=".55" gradientTransform="translate(-1867.06 23002.14) rotate(179.98) scale(50.34)" xlink:href="#radial-gradient"/>
    <clipPath id="clippath-25">
      <path class="cls-1" d="M22.06,43.01s.43.48,1.16.65c.72.17,1.4-.09,1.4-.09,0,0-.5-.52-1.22-.69-.16-.04-.31-.05-.45-.05-.51,0-.88.18-.88.18"/>
    </clipPath>
    <radialGradient id="radial-gradient-24" cx="-37.96" cy="456.09" fx="-37.96" fy="456.09" r=".55" gradientTransform="translate(-1858.28 23016.4) rotate(179.97) scale(50.37)" xlink:href="#radial-gradient"/>
    <clipPath id="clippath-26">
      <path class="cls-1" d="M24.06,42.43c.26.63.74.97.74.97,0,0,.11-.64-.15-1.27-.26-.63-.68-.9-.68-.9,0,0-.18.58.09,1.2"/>
    </clipPath>
    <radialGradient id="radial-gradient-25" cx="-37.95" cy="456.1" fx="-37.95" fy="456.1" r=".55" gradientTransform="translate(-1870.17 23003.17) rotate(-179.99) scale(50.35)" xlink:href="#radial-gradient"/>
    <clipPath id="clippath-27">
      <path class="cls-1" d="M25.25,44.14c-.71,0-1.21.41-1.21.41,0,0,.51.35,1.22.35.71,0,1.28-.38,1.28-.38,0,0-.57-.37-1.27-.37h-.01"/>
    </clipPath>
    <radialGradient id="radial-gradient-26" cx="-37.96" cy="456.1" fx="-37.96" fy="456.1" r=".55" gradientTransform="translate(-1871.6 23003.67) rotate(-179.98) scale(50.35)" xlink:href="#radial-gradient"/>
    <clipPath id="clippath-28">
      <path class="cls-1" d="M25.73,43.5c.4.55.94.78.94.78,0,0-.03-.65-.43-1.21-.4-.55-.86-.72-.86-.72,0,0-.04.6.36,1.15"/>
    </clipPath>
    <radialGradient id="radial-gradient-27" cx="-37.96" cy="456.1" fx="-37.96" fy="456.1" r=".55" gradientTransform="translate(-1873.7 22987.68) rotate(-179.98) scale(50.31)" xlink:href="#radial-gradient"/>
    <clipPath id="clippath-29">
      <path class="cls-1" d="M27.76,45.32c-.11-.22-.02-.49.2-.6.22-.11.49-.02.6.2.11.22.02.49-.2.6-.06.03-.13.05-.2.05-.17,0-.33-.09-.4-.25M27.39,43.56c-.22.11-.18.63,0,1.01.09.18.21.32.33.41-.15,0-.33.03-.51.12-.37.18-.72.58-.61.8.11.22.63.18,1.01,0,.18-.09.32-.21.41-.33,0,.15.03.33.12.51.18.37.58.72.8.61.22-.11.18-.63,0-1.01-.09-.18-.21-.32-.33-.4.15,0,.33-.03.51-.12.37-.18.72-.58.61-.8-.11-.22-.64-.18-1.01,0-.18.09-.32.21-.41.33,0-.15-.03-.33-.12-.51-.16-.33-.48-.63-.71-.63-.03,0-.06,0-.09.02"/>
    </clipPath>
    <radialGradient id="radial-gradient-28" cx="-37.95" cy="456.11" fx="-37.95" fy="456.11" r=".55" gradientTransform="translate(-1859.39 22990.78) rotate(180) scale(50.32)" xlink:href="#radial-gradient"/>
    <clipPath id="clippath-30">
      <path class="cls-1" d="M21.47,40.77c-.25-.04-.42-.27-.39-.52.03-.25.27-.42.52-.39.25.04.42.27.39.52-.03.23-.23.39-.45.39-.02,0-.04,0-.06,0M21.21,39.4c-.03.2,0,.39.05.53-.12-.09-.3-.17-.5-.2-.42-.06-.94.07-.98.32-.04.25.43.52.85.58.2.03.39,0,.53-.05-.09.12-.17.3-.2.5-.06.42.07.94.32.98.25.03.52-.43.58-.85.03-.2,0-.39-.05-.54.12.1.3.17.5.2.42.06.94-.07.98-.32.04-.25-.43-.52-.85-.58-.2-.03-.39,0-.53.05.09-.12.17-.3.2-.5.06-.42-.07-.94-.32-.98h-.03c-.24,0-.49.45-.55.85"/>
    </clipPath>
    <radialGradient id="radial-gradient-29" cx="-37.95" cy="456.12" fx="-37.95" fy="456.12" r=".55" gradientTransform="translate(-1874.11 23003.87) rotate(-179.99) scale(50.34)" xlink:href="#radial-gradient"/>
    <clipPath id="clippath-31">
      <path class="cls-1" d="M31.62,45.85c0,.31.25.56.56.56s.56-.25.56-.56-.25-.56-.56-.56-.56.25-.56.56"/>
    </clipPath>
    <radialGradient id="radial-gradient-30" cx="-43.2" cy="451.47" fx="-43.2" fy="451.47" r=".56" gradientTransform="translate(2199.41 22746.56) scale(50.33 -50.33)" xlink:href="#radial-gradient"/>
    <clipPath id="clippath-32">
      <polygon class="cls-1" points="17.51 29.93 18.65 30.08 18.57 30.64 17.45 30.49 17.4 31.03 20.18 31.39 20.22 30.85 19.07 30.7 19.14 30.14 20.3 30.29 20.4 29.76 17.61 29.39 17.51 29.93"/>
    </clipPath>
    <radialGradient id="radial-gradient-31" cx="-43.2" cy="451.46" fx="-43.2" fy="451.46" r=".55" gradientTransform="translate(2199.74 22749.99) scale(50.34 -50.34)" xlink:href="#radial-gradient"/>
    <clipPath id="clippath-33">
      <path class="cls-1" d="M19.22,27.88c-.14-.08-.4-.21-.57-.3h0c.18.02.46.08.62.11l.58.1-.13.37-.51-.28ZM18.04,27.68l2.49,1.5.15-.51-.56-.32.16-.47.64.09.19-.49-2.86-.39-.2.59Z"/>
    </clipPath>
    <radialGradient id="radial-gradient-32" cx="-43.2" cy="451.47" fx="-43.2" fy="451.47" r=".55" gradientTransform="translate(2198.78 22742.04) scale(50.32 -50.32)" xlink:href="#radial-gradient"/>
    <clipPath id="clippath-34">
      <polygon class="cls-1" points="19.5 24.48 21.2 25.39 21.19 25.4 19.16 25.08 18.93 25.51 21.37 26.91 21.58 26.48 19.93 25.57 19.95 25.58 21.92 25.89 22.19 25.47 19.75 24.08 19.5 24.48"/>
    </clipPath>
    <radialGradient id="radial-gradient-33" cx="-43.19" cy="451.47" fx="-43.19" fy="451.47" r=".55" gradientTransform="translate(2198.88 22745.25) scale(50.33 -50.33)" xlink:href="#radial-gradient"/>
    <clipPath id="clippath-35">
      <path class="cls-1" d="M21.12,22.3l.4.56c.12.17.24.33.38.49h0c-.18-.1-.38-.19-.54-.27l-.64-.29-.36.45,1.7.64.82.7.35-.41-.83-.71-.89-1.56-.38.41Z"/>
    </clipPath>
    <radialGradient id="radial-gradient-34" cx="-43.19" cy="451.47" fx="-43.19" fy="451.47" r=".55" gradientTransform="translate(2199.2 22750.48) scale(50.34 -50.34)" xlink:href="#radial-gradient"/>
    <clipPath id="clippath-36">
      <path class="cls-1" d="M23.29,21.79c-.08-.14-.24-.39-.33-.55h.01c.14.12.34.3.47.41l.44.39-.3.25-.29-.51ZM22.39,21.04l1.36,2.56.39-.37-.32-.58.38-.32.52.42.42-.33-2.25-1.8-.49.42Z"/>
    </clipPath>
    <radialGradient id="radial-gradient-35" cx="-43.2" cy="451.47" fx="-43.2" fy="451.47" r=".55" gradientTransform="translate(2193.84 22688.54) scale(50.2 -50.2)" xlink:href="#radial-gradient"/>
    <clipPath id="clippath-37">
      <path class="cls-1" d="M25.31,19.03l.3.54c.25.45.52.85.67,1.1h0c-.19-.17-.48-.41-.65-.56l-.91-.75-.42.26,1.36,2.46.41-.25-.31-.56c-.27-.49-.5-.86-.64-1.09h0c.18.19.46.43.65.59l.9.73.44-.22-1.37-2.46-.42.22Z"/>
    </clipPath>
    <radialGradient id="radial-gradient-36" cx="-43.19" cy="451.47" fx="-43.19" fy="451.47" r=".55" gradientTransform="translate(2198.99 22745.95) scale(50.33 -50.33)" xlink:href="#radial-gradient"/>
    <clipPath id="clippath-38">
      <path class="cls-1" d="M27.96,17.94c-.56.18-.98.76-.69,1.72.14.46.39.81.68.96.23.12.49.13.79.04.19-.06.42-.19.52-.27l-.45-1.41-.71.23.13.42.24-.07.21.64s-.05.03-.1.04c-.24.08-.56-.07-.76-.71-.22-.69-.02-1.02.33-1.13.13-.04.23-.05.32-.04l-.05-.47s-.05,0-.08,0c-.09,0-.22.02-.37.07"/>
    </clipPath>
    <radialGradient id="radial-gradient-37" cx="-43.2" cy="451.46" fx="-43.2" fy="451.46" r=".55" gradientTransform="translate(2198.81 22741.05) scale(50.32 -50.32)" xlink:href="#radial-gradient"/>
    <clipPath id="clippath-39">
      <path class="cls-1" d="M32,19.15c.01.42-.09.54-.25.54-.14,0-.27-.12-.28-.52l-.06-1.81-.54.04.06,1.7c.02.7.27,1.09.85,1.07.54-.02.79-.42.77-1.13l-.06-1.69h-.54s.06,1.8.06,1.8Z"/>
    </clipPath>
    <radialGradient id="radial-gradient-38" cx="-43.2" cy="451.48" fx="-43.2" fy="451.48" r=".55" gradientTransform="translate(2200.15 22753.93) scale(50.35 -50.35)" xlink:href="#radial-gradient"/>
    <clipPath id="clippath-40">
      <polygon class="cls-1" points="33.37 20.2 33.84 20.26 34.13 18.37 34.13 18.37 34.51 20.37 34.99 20.47 35.46 17.71 35 17.61 34.73 19.5 34.72 19.5 34.32 17.5 33.84 17.44 33.37 20.2"/>
    </clipPath>
    <radialGradient id="radial-gradient-39" cx="-43.2" cy="451.46" fx="-43.2" fy="451.46" r=".55" gradientTransform="translate(2199.09 22741.83) scale(50.32 -50.32)" xlink:href="#radial-gradient"/>
    <clipPath id="clippath-41">
      <polygon class="cls-1" points="35.77 20.69 36.29 20.86 37.19 18.21 36.67 18.04 35.77 20.69"/>
    </clipPath>
    <radialGradient id="radial-gradient-40" cx="-43.19" cy="451.47" fx="-43.19" fy="451.47" r=".55" gradientTransform="translate(2198.42 22740.92) scale(50.32 -50.32)" xlink:href="#radial-gradient"/>
    <clipPath id="clippath-42">
      <polygon class="cls-1" points="37.39 21.33 37.92 21.6 39.76 19.42 39.25 19.13 37.96 20.92 37.95 20.92 38.65 18.81 38.1 18.57 37.39 21.33"/>
    </clipPath>
    <radialGradient id="radial-gradient-41" cx="-43.19" cy="451.47" fx="-43.19" fy="451.47" r=".55" gradientTransform="translate(2199.47 22752) scale(50.34 -50.34)" xlink:href="#radial-gradient"/>
    <clipPath id="clippath-43">
      <polygon class="cls-1" points="38.95 22.23 39.96 22.98 40.25 22.59 39.67 22.16 40.12 21.56 40.63 21.95 40.9 21.59 40.39 21.2 40.78 20.69 41.31 21.1 41.61 20.71 40.64 19.99 38.95 22.23"/>
    </clipPath>
    <radialGradient id="radial-gradient-42" cx="-43.19" cy="451.47" fx="-43.19" fy="451.47" r=".55" gradientTransform="translate(2198.9 22744.96) scale(50.33 -50.33)" xlink:href="#radial-gradient"/>
    <clipPath id="clippath-44">
      <path class="cls-1" d="M42.12,22.96l-.06-.07.61-.56s.07.05.1.08c.16.18.1.37-.07.53-.1.09-.21.14-.32.14-.09,0-.18-.03-.25-.11M40.55,23.55l.39.38.81-.75.05.06c.12.13.11.26-.11.54-.2.24-.36.47-.39.55l.37.45c.04-.11.26-.43.45-.68.18-.24.25-.43.17-.62h0c.29.11.58.04.8-.17.18-.16.28-.33.27-.55,0-.25-.14-.48-.34-.69-.14-.15-.29-.3-.42-.42l-2.06,1.91Z"/>
    </clipPath>
    <radialGradient id="radial-gradient-43" cx="-43.2" cy="451.46" fx="-43.2" fy="451.46" r=".55" gradientTransform="translate(2199.03 22741.62) scale(50.32 -50.32)" xlink:href="#radial-gradient"/>
    <clipPath id="clippath-45">
      <path class="cls-1" d="M43.64,24.09c-.21.14-.38.42-.37.86,0,.28-.02.44-.19.55-.15.1-.33.07-.47-.15-.09-.13-.15-.32-.16-.44l-.43.19c0,.11.07.32.19.51.29.46.78.59,1.2.32.25-.16.41-.43.4-.85,0-.35.02-.47.16-.56.13-.08.3-.06.43.13.08.13.11.26.11.35l.44-.18c0-.1-.06-.27-.15-.42-.19-.3-.45-.44-.71-.44-.16,0-.31.05-.45.14"/>
    </clipPath>
    <radialGradient id="radial-gradient-44" cx="-43.2" cy="451.46" fx="-43.2" fy="451.46" r=".55" gradientTransform="translate(2199.38 22746.27) scale(50.33 -50.33)" xlink:href="#radial-gradient"/>
    <clipPath id="clippath-46">
      <rect class="cls-1" x="43.01" y="26.33" width="2.79" height=".54" transform="translate(-7.07 21.18) rotate(-24.91)"/>
    </clipPath>
    <radialGradient id="radial-gradient-45" cx="-43.2" cy="451.47" fx="-43.2" fy="451.47" r=".55" gradientTransform="translate(2198.88 22744.42) scale(50.33 -50.33)" xlink:href="#radial-gradient"/>
    <clipPath id="clippath-47">
      <polygon class="cls-1" points="45.69 27.36 45.85 27.83 43.64 28.5 43.8 29.02 46.01 28.34 46.13 28.82 46.61 28.67 46.17 27.22 45.69 27.36"/>
    </clipPath>
    <radialGradient id="radial-gradient-46" cx="-43.2" cy="451.47" fx="-43.2" fy="451.47" r=".55" gradientTransform="translate(2199.73 22749.21) scale(50.34 -50.34)" xlink:href="#radial-gradient"/>
    <clipPath id="clippath-48">
      <polygon class="cls-1" points="45.15 30.24 44.09 30.37 44.16 30.91 45.23 30.77 46.99 31.18 46.95 30.63 45.64 30.49 45.64 30.48 46.87 30 46.77 29.42 45.15 30.24"/>
    </clipPath>
    <radialGradient id="radial-gradient-47" cx="-43.19" cy="451.47" fx="-43.19" fy="451.47" r=".55" gradientTransform="translate(2198.55 22742.46) scale(50.32 -50.32)" xlink:href="#radial-gradient"/>
    <clipPath id="clippath-49">
      <path class="cls-1" d="M30.47,38.05c-.06-.01-.11-.03-.15-.06-.05-.03-.08-.07-.11-.12-.03-.05-.04-.11-.04-.18s.01-.13.04-.18c.03-.05.06-.09.11-.12.05-.03.1-.05.15-.06.06-.01.12-.02.18-.02s.12,0,.18.02c.06.01.11.03.15.06.05.03.08.07.11.12.02.05.04.11.04.18s-.01.13-.04.18c-.03.05-.06.09-.11.12-.05.03-.1.05-.15.06-.06.01-.12.02-.18.02s-.12,0-.18-.02M30.35,36.99c-.11.03-.21.08-.3.15-.09.07-.17.15-.22.25-.06.1-.09.22-.09.36,0,.12.02.22.07.3.05.08.11.15.19.21.08.06.16.09.26.12.1.02.19.04.28.04.12,0,.23-.02.33-.06.11-.04.21-.09.32-.15-.03.44-.23.66-.63.66-.04,0-.09,0-.14,0-.05,0-.1-.02-.15-.04-.05-.02-.09-.04-.14-.07-.04-.03-.08-.06-.1-.09,0-.01-.02-.03-.02-.05,0-.02,0-.03,0-.05l-.05-.03-.23.46.03.03s.05-.03.07-.03c.02,0,.05.01.08.03.03.02.07.04.13.07.05.03.12.05.2.07.08.02.18.03.29.03.16,0,.31-.03.44-.08.13-.06.25-.13.34-.24.09-.11.17-.23.22-.38.05-.15.08-.31.08-.49,0-.15-.02-.3-.07-.42-.04-.13-.11-.24-.19-.33-.08-.09-.18-.17-.3-.22-.11-.05-.24-.08-.38-.08-.11,0-.22.01-.33.04"/>
    </clipPath>
    <radialGradient id="radial-gradient-48" cx="-42.99" cy="451.64" fx="-42.99" fy="451.64" r=".55" gradientTransform="translate(2379.43 24758.87) scale(54.77 -54.77)" xlink:href="#radial-gradient-2"/>
    <clipPath id="clippath-50">
      <path class="cls-1" d="M34.56,38.05c-.06-.01-.11-.03-.16-.06-.04-.03-.08-.07-.11-.12-.02-.05-.04-.11-.04-.18s.02-.13.04-.18c.03-.05.06-.09.11-.12.05-.03.1-.05.16-.06.06-.01.12-.02.18-.02s.12,0,.18.02c.06.01.11.03.15.06.05.03.08.07.11.12.03.05.04.11.04.18s-.01.13-.04.18c-.03.05-.06.09-.11.12-.05.03-.1.05-.15.06-.06.01-.12.02-.18.02s-.12,0-.18-.02M34.44,36.99c-.11.03-.21.08-.3.15-.09.07-.17.15-.22.25-.06.1-.09.22-.09.36,0,.12.03.22.07.3.05.08.11.15.19.21.08.06.17.09.26.12.1.02.19.04.28.04.12,0,.23-.02.33-.06.11-.04.21-.09.32-.15-.03.44-.23.66-.63.66-.04,0-.09,0-.14,0-.05,0-.1-.02-.15-.04-.05-.02-.09-.04-.14-.07-.04-.03-.07-.06-.1-.09,0-.01-.01-.03-.02-.05,0-.02,0-.03,0-.05l-.05-.03-.23.46.03.03s.04-.03.07-.03c.02,0,.05.01.08.03.03.02.07.04.13.07.05.03.12.05.2.07.08.02.18.03.29.03.16,0,.31-.03.44-.08.13-.06.24-.13.34-.24.1-.11.17-.23.22-.38.05-.15.08-.31.08-.49,0-.15-.02-.3-.07-.42-.05-.13-.11-.24-.19-.33-.08-.09-.18-.17-.3-.22-.11-.05-.24-.08-.38-.08-.11,0-.22.01-.33.04"/>
    </clipPath>
    <radialGradient id="radial-gradient-49" cx="-42.98" cy="451.64" fx="-42.98" fy="451.64" r=".55" gradientTransform="translate(2379.33 24761.04) scale(54.77 -54.77)" xlink:href="#radial-gradient-2"/>
    <clipPath id="clippath-51">
      <path class="cls-1" d="M32.35,36.99c-.1.03-.19.07-.25.11-.07.04-.12.08-.15.11-.03.03-.06.05-.07.05-.02,0-.04,0-.06-.02l-.04.04.3.43.03-.02s0-.03-.01-.05c0-.01,0-.03,0-.04,0-.03.02-.07.06-.1.04-.03.09-.06.14-.09.06-.03.12-.05.19-.07.07-.02.14-.02.21-.02.06,0,.11,0,.17,0,.06,0,.11.02.16.04.05.02.08.05.11.08.03.04.04.08.04.13s-.02.11-.05.15c-.03.04-.07.07-.12.09-.05.02-.09.04-.15.04-.05,0-.1.01-.14.01-.06,0-.12,0-.17-.03-.05-.02-.08-.05-.08-.11h-.05v.57h.05c.01-.05.04-.08.09-.09.04-.01.1-.02.16-.02.04,0,.09,0,.15.01.06,0,.11.02.17.04.05.02.1.05.13.1.03.04.05.09.05.16s-.02.13-.06.17c-.04.04-.08.08-.14.1-.05.03-.11.04-.17.05-.06,0-.12.01-.16.01-.06,0-.13,0-.21-.03-.08-.02-.16-.05-.24-.08-.08-.04-.14-.08-.2-.13-.06-.05-.08-.11-.08-.17v-.03s0-.02,0-.03l-.04-.02-.22.6h.03s.02,0,.03,0c0,0,.02,0,.03,0,.02,0,.06.01.1.04.05.03.11.06.19.09.07.03.16.06.26.08.1.02.2.03.32.03.1,0,.21,0,.32-.03.11-.02.22-.05.32-.11.09-.05.17-.13.24-.22.06-.09.1-.21.1-.35,0-.13-.04-.23-.1-.31-.07-.08-.16-.14-.26-.16h0c.09-.03.16-.09.22-.17.05-.08.08-.18.08-.28,0-.11-.03-.2-.08-.28-.05-.08-.12-.14-.2-.19-.08-.05-.17-.09-.27-.11-.1-.02-.2-.03-.29-.03-.15,0-.27.02-.37.05"/>
    </clipPath>
    <radialGradient id="radial-gradient-50" cx="-42.98" cy="451.64" fx="-42.98" fy="451.64" r=".54" gradientTransform="translate(2379.26 24758.64) scale(54.77 -54.77)" xlink:href="#radial-gradient-2"/>
    <clipPath id="clippath-52">
      <path class="cls-1" d="M28.88,36.94v.05s.05.01.07.03c.02,0,.02.04.02.07,0,.04-.01.08-.04.11-.03.03-.06.04-.11.04-.02,0-.04,0-.07-.01-.02,0-.03-.03-.03-.05h-.05v.53h.05s.02-.04.04-.05c.02-.01.04-.02.06-.03.02,0,.05-.01.07-.01.02,0,.04,0,.06,0v1.4s-.01.08-.03.1c-.02.01-.04.02-.06.02v.05h.62v-.05s-.05,0-.07-.02c-.02-.02-.03-.05-.03-.1v-1.92s0-.05.03-.06c.02-.01.05-.02.07-.03v-.05h-.61Z"/>
    </clipPath>
    <radialGradient id="radial-gradient-51" cx="-42.98" cy="451.64" fx="-42.98" fy="451.64" r=".55" gradientTransform="translate(2379.44 24759.92) scale(54.77 -54.77)" xlink:href="#radial-gradient-2"/>
  </defs>
  <g class="cls-108">
    <rect class="cls-11" x="15.43" y="15.43" width="33.51" height="33.51"/>
  </g>
  <g class="cls-56">
    <rect class="cls-9" x="15.37" y="15.36" width="33.64" height="33.64"/>
  </g>
  <g class="cls-59">
    <rect class="cls-12" x="9.43" y="9.43" width="45.52" height="45.52" transform="translate(-13.33 32.19) rotate(-45)"/>
  </g>
  <g class="cls-57">
    <rect class="cls-8" x="16.29" y="16.29" width="31.79" height="31.79"/>
  </g>
  <g class="cls-58">
    <rect class="cls-10" x="16.5" y="16.5" width="31.37" height="31.37" transform="translate(-13.33 32.18) rotate(-45)"/>
  </g>
  <g class="cls-64">
    <rect class="cls-5" x="21.36" y="21.35" width="21.64" height="21.64"/>
  </g>
  <g class="cls-61">
    <rect class="cls-4" x="24.7" y="27.28" width="14.88" height="6.76"/>
  </g>
  <g class="cls-60">
    <rect class="cls-3" x="24.12" y="26.74" width="16.05" height="7.91"/>
  </g>
  <g class="cls-63">
    <rect class="cls-2" x="27.39" y="28.7" width="9.6" height="4.42"/>
  </g>
  <g class="cls-62">
    <rect class="cls-7" x="44.96" y="33.73" width=".74" height="1.62" transform="translate(-3.89 5.81) rotate(-7.03)"/>
  </g>
  <g class="cls-18">
    <rect class="cls-6" x="44.92" y="34.74" width="2.1" height="2.27" transform="translate(-4.02 5.85) rotate(-6.98)"/>
  </g>
  <g class="cls-15">
    <rect class="cls-69" x="43.95" y="34.58" width="1.21" height="2.3" transform="translate(-4.01 5.68) rotate(-6.98)"/>
  </g>
  <g class="cls-22">
    <rect class="cls-72" x="43.98" y="37.04" width="2.38" height="1.96" transform="translate(-4.3 5.79) rotate(-7.01)"/>
  </g>
  <g class="cls-20">
    <rect class="cls-66" x="43.31" y="36.44" width=".99" height="2.34" transform="translate(-4.24 5.59) rotate(-6.97)"/>
  </g>
  <g class="cls-21">
    <rect class="cls-68" x="39.81" y="42.68" width="2.66" height="1.29" transform="translate(-4.92 5.27) rotate(-6.92)"/>
  </g>
  <g class="cls-19">
    <rect class="cls-67" x="39.43" y="41.17" width="1.37" height="2.29" transform="translate(-4.84 5.18) rotate(-6.97)"/>
  </g>
  <g class="cls-16">
    <rect class="cls-74" x="37.9" y="43.99" width="2.57" height="1.05" transform="translate(-5.11 5.08) rotate(-6.96)"/>
  </g>
  <g class="cls-13">
    <rect class="cls-65" x="37.69" y="42.28" width="1.56" height="2.08" transform="translate(-4.98 5) rotate(-6.99)"/>
  </g>
  <g class="cls-17">
    <rect class="cls-70" x="34.46" y="43.35" width="3.7" height="3.63" transform="translate(-5.22 4.75) rotate(-6.98)"/>
  </g>
  <g class="cls-14">
    <rect class="cls-73" x="40.94" y="38.35" width="3.99" height="3.96" transform="translate(-4.58 5.51) rotate(-6.97)"/>
  </g>
  <g class="cls-40">
    <rect class="cls-71" x="18.33" y="34.17" width="1.62" height=".74" transform="translate(-17.46 49.37) rotate(-83.06)"/>
  </g>
  <g class="cls-41">
    <rect class="cls-93" x="17.36" y="34.83" width="2.27" height="2.09" transform="translate(-19.37 49.87) rotate(-83.01)"/>
  </g>
  <g class="cls-42">
    <rect class="cls-98" x="18.77" y="35.13" width="2.3" height="1.21" transform="translate(-17.96 51.16) rotate(-83.03)"/>
  </g>
  <g class="cls-43">
    <rect class="cls-90" x="18.32" y="36.83" width="1.96" height="2.38" transform="translate(-20.79 52.56) rotate(-83.01)"/>
  </g>
  <g class="cls-44">
    <rect class="cls-92" x="19.49" y="37.12" width="2.34" height=".99" transform="translate(-19.19 53.54) rotate(-83)"/>
  </g>
  <g class="cls-45">
    <rect class="cls-94" x="22.69" y="41.99" width="1.29" height="2.66" transform="translate(-22.51 61.2) rotate(-83)"/>
  </g>
  <g class="cls-38">
    <rect class="cls-85" x="23.21" y="41.63" width="2.29" height="1.37" transform="translate(-20.6 61.36) rotate(-83.03)"/>
  </g>
  <g class="cls-36">
    <rect class="cls-95" x="24.75" y="43.23" width="1.05" height="2.57" transform="translate(-21.97 64.21) rotate(-83.04)"/>
  </g>
  <g class="cls-39">
    <rect class="cls-97" x="24.96" y="42.54" width="2.08" height="1.56" transform="translate(-20.15 63.88) rotate(-83.04)"/>
  </g>
  <g class="cls-37">
    <rect class="cls-91" x="26.35" y="43.32" width="3.63" height="3.7" transform="translate(-20.1 67.63) rotate(-83.02)"/>
  </g>
  <g class="cls-32">
    <rect class="cls-96" x="19.55" y="38.33" width="3.96" height="3.99" transform="translate(-21.11 56.81) rotate(-83.03)"/>
  </g>
  <g class="cls-26">
    <rect class="cls-104" x="31.62" y="45.29" width="1.12" height="1.12"/>
  </g>
  <g class="cls-27">
    <rect class="cls-103" x="17.4" y="29.39" width="3" height="2"/>
  </g>
  <g class="cls-28">
    <rect class="cls-102" x="18.04" y="27.09" width="3.06" height="2.09"/>
  </g>
  <g class="cls-29">
    <rect class="cls-101" x="18.93" y="24.08" width="3.26" height="2.83"/>
  </g>
  <g class="cls-30">
    <rect class="cls-89" x="20.34" y="21.9" width="2.87" height="2.68"/>
  </g>
  <g class="cls-33">
    <rect class="cls-88" x="22.39" y="20.62" width="2.74" height="2.98"/>
  </g>
  <g class="cls-34">
    <rect class="cls-106" x="24.28" y="18.82" width="2.81" height="3.26"/>
  </g>
  <g class="cls-35">
    <rect class="cls-105" x="26.97" y="17.88" width="2.29" height="2.88"/>
  </g>
  <g class="cls-31">
    <rect class="cls-100" x="30.87" y="17.35" width="1.69" height="2.84"/>
  </g>
  <g class="cls-52">
    <rect class="cls-99" x="33.37" y="17.44" width="2.1" height="3.04"/>
  </g>
  <g class="cls-46">
    <rect class="cls-81" x="35.77" y="18.04" width="1.41" height="2.83"/>
  </g>
  <g class="cls-47">
    <rect class="cls-82" x="37.39" y="18.57" width="2.37" height="3.03"/>
  </g>
  <g class="cls-48">
    <rect class="cls-80" x="38.95" y="19.99" width="2.65" height="3"/>
  </g>
  <g class="cls-49">
    <rect class="cls-78" x="40.55" y="21.64" width="2.82" height="3.13"/>
  </g>
  <g class="cls-50">
    <rect class="cls-77" x="42.02" y="23.95" width="2.93" height="2.24"/>
  </g>
  <g class="cls-53">
    <rect class="cls-84" x="43.02" y="25.76" width="2.76" height="1.67"/>
  </g>
  <g class="cls-54">
    <rect class="cls-83" x="43.64" y="27.22" width="2.97" height="1.8"/>
  </g>
  <g class="cls-55">
    <rect class="cls-76" x="44.09" y="29.42" width="2.9" height="1.76"/>
  </g>
  <g class="cls-51">
    <rect class="cls-75" x="29.74" y="36.94" width="1.88" height="2.24"/>
  </g>
  <g class="cls-23">
    <rect class="cls-79" x="33.83" y="36.94" width="1.88" height="2.24"/>
  </g>
  <g class="cls-25">
    <rect class="cls-87" x="31.71" y="36.94" width="1.93" height="2.24"/>
  </g>
  <g class="cls-24">
    <rect class="cls-86" x="28.68" y="36.94" width=".81" height="2.23"/>
  </g>
  <path class="cls-107" d="M74.25,21.19h-3.15v15.75h3.15v-8.53h3.1v-1.83h-3.1v-5.39ZM63.83,35.11h-3.15v8.04h13.92v-1.86h-10.78v-6.18ZM159.59,38.08h2.96v-16.92h-15.23v1.86h12.27v15.06ZM85.55,20.71c-7.79,0-7.79,11.39,0,11.39s7.77-11.39,0-11.39M85.55,22.47c3.8,0,3.8,7.9,0,7.9s-3.83-7.9,0-7.9M66.63,24.1h2.84v-1.86h-4.72v-1.77h-3.15v1.77h-4.72v1.86h2.84c-3.48,2.69-2.33,9.42,3.45,9.42s6.91-6.73,3.44-9.42M63.19,24.65c3.57,0,3.57,7.22,0,7.22s-3.6-7.22,0-7.22M127.14,36.94h10.99v6.2h3.14v-8.04h-14.13v1.84ZM141.27,21.19h-3.14v12.9h3.14v-5.68h3.09v-1.83h-3.09v-5.39ZM133.65,24.1h2.85v-1.86h-4.72v-1.77h-3.15v1.77h-4.72v1.86h2.84c-3.48,2.69-2.33,9.42,3.46,9.42s6.9-6.73,3.44-9.42M130.21,24.65c3.57,0,3.57,7.22,0,7.22s-3.6-7.22,0-7.22M90.66,33.02c-8.03,0-8.06,10.88,0,10.88s8-10.88,0-10.88M90.66,42.16c-3.93,0-3.93-7.44,0-7.44s3.9,7.44,0,7.44M157.63,39.83v-9.53h-2.9v9.53h-2.08v-9.53h-2.91v9.53h-3.18v1.86h17.22v-1.86h-6.15ZM96.39,21.21h-3.17v11.72h3.17v-3.08h3.1v-1.87h-3.1v-2.66h3.1v-1.84h-3.1v-2.28ZM117.11,27.99h-1.46v-6.8h-2.96v12.52h-5.88v-10.66h4.34v-1.86h-7.48v14.39h9.02v7.59h2.96v-13.32h1.46v13.32h2.96v-21.98h-2.96v6.8Z"/>
  <g>
    <g>
      <path class="cls-107" d="M175,26.68h5.13v-2.65h2.11v2.65h6.49v1.7h-13.73v-1.7ZM187.17,32.19c-.02,1.8-2.09,2.86-5.41,2.86s-5.37-1.05-5.37-2.86,2.11-2.84,5.37-2.86c3.31.02,5.39,1.05,5.41,2.86ZM176.56,20.63h10.54v1.22c0,1.19,0,2.48-.44,4.05l-2.07-.2c.34-1.38.39-2.4.37-3.43h-8.4v-1.63ZM181.76,33.44c2.09-.02,3.3-.43,3.3-1.26s-1.21-1.27-3.3-1.26c-2.07-.02-3.26.42-3.26,1.26s1.19,1.24,3.26,1.26Z"/>
      <path class="cls-107" d="M191.79,30.23v-4.47h2.07v4.4c1.48-.07,2.99-.17,4.39-.36l.14,1.6c-3.11.51-6.53.56-9.18.54l-.2-1.67c.85-.02,1.8-.02,2.79-.05ZM197.64,22.67c-.02,1.41-.02,3.26-.41,5.78l-2.07-.17c.34-2.18.37-3.81.37-5.13h-5.71v-1.7h7.82v1.22ZM198.97,19.91h2.14v6.09h2.07v1.77h-2.07v7.28h-2.14v-15.13Z"/>
      <path class="cls-107" d="M203.76,21.68h5.64v1.7h-3.54v6.46c1.46-.02,2.75-.1,4.22-.37l.17,1.73c-1.85.36-3.45.41-5.44.41h-1.05v-9.93ZM216.37,35.04h-2.01v-7.58h-1.43v6.83h-1.97v-14.11h1.97v5.58h1.43v-5.85h2.01v15.13Z"/>
      <path class="cls-107" d="M226.47,22.94h-8.98v-1.67h3.43v-1.43h2.11v1.43h3.43v1.67ZM221.98,23.45c2.19,0,3.72,1.12,3.74,2.79-.02,1.65-1.55,2.77-3.74,2.75-2.19.02-3.74-1.1-3.74-2.75s1.55-2.79,3.74-2.79ZM219.33,30.04h10.17v5h-2.14v-3.3h-8.02v-1.7ZM221.98,27.39c1.02,0,1.7-.39,1.7-1.16s-.68-1.21-1.7-1.22c-1,.02-1.68.44-1.67,1.22-.02.77.66,1.16,1.67,1.16ZM227.36,19.91h2.14v3.94h2.04v1.73h-2.04v3.81h-2.14v-9.48Z"/>
      <path class="cls-107" d="M238.65,22.53h-3.06v-1.7h8.19v1.7h-2.99c.03,1.75,1.12,3.54,3.47,4.32l-1.05,1.67c-1.65-.54-2.81-1.63-3.47-2.99-.66,1.55-1.85,2.77-3.64,3.4l-1.12-1.7c2.48-.82,3.62-2.79,3.67-4.69ZM242.66,29.23c3.23.02,5.2,1.09,5.2,2.92s-1.97,2.91-5.2,2.92c-3.23-.02-5.2-1.09-5.2-2.92s1.97-2.91,5.2-2.92ZM242.66,33.44c2.01,0,3.09-.43,3.09-1.29s-1.09-1.31-3.09-1.29c-2.01-.02-3.09.43-3.09,1.29s1.09,1.29,3.09,1.29ZM247.82,28.89h-2.11v-3.57h-2.38v-1.7h2.38v-3.71h2.11v8.98Z"/>
      <path class="cls-107" d="M263.09,33.27h-13.84v-1.7h5.85v-2.82h-4.39v-7.85h2.14v2.35h6.6v-2.35h2.11v7.85h-4.39v2.82h5.92v1.7ZM259.45,27.09v-2.18h-6.6v2.18h6.6Z"/>
      <path class="cls-107" d="M273.15,29.98l-1.26,1.7c-1.73-.78-2.94-2.28-3.62-4.15-.68,2.04-1.92,3.69-3.76,4.52l-1.29-1.77c2.65-1.1,3.93-3.99,3.94-6.94v-2.24h2.14v2.24c0,2.79,1.26,5.56,3.84,6.63ZM273.94,19.91h2.14v15.16h-2.14v-15.16Z"/>
      <path class="cls-107" d="M277.61,31.44h13.84v1.73h-13.84v-1.73ZM290.94,27.09l-.92,1.77c-2.63-.53-4.59-2.01-5.58-3.94-.99,1.92-2.96,3.4-5.58,3.94l-.92-1.77c3.38-.6,5.34-2.97,5.37-5.17v-1.09h2.24v1.09c0,2.23,1.95,4.59,5.37,5.17Z"/>
      <path class="cls-107" d="M298.14,22.53h-3.71v1.22h3.16v1.6h-3.16v1.33c1.63-.02,2.84-.1,4.22-.34l.24,1.67c-1.75.31-3.2.36-5.47.34h-1.02v-7.51h5.75v1.7ZM294.47,29.53h10.3v5.34h-10.3v-5.34ZM302.67,33.17v-1.97h-6.09v1.97h6.09ZM298.25,23.55h1.53v-3.4h2v8.7h-2v-3.6h-1.53v-1.7ZM302.77,19.91h2.01v9.04h-2.01v-9.04Z"/>
      <path class="cls-107" d="M314.94,22.94h-8.97v-1.67h3.43v-1.43h2.11v1.43h3.43v1.67ZM310.45,23.45c2.19,0,3.72,1.12,3.74,2.79-.02,1.65-1.55,2.77-3.74,2.75-2.19.02-3.74-1.1-3.74-2.75s1.55-2.79,3.74-2.79ZM307.8,30.04h10.17v5h-2.14v-3.3h-8.02v-1.7ZM310.45,27.39c1.02,0,1.7-.39,1.7-1.16s-.68-1.21-1.7-1.22c-1,.02-1.68.44-1.67,1.22-.02.77.66,1.16,1.67,1.16ZM315.82,19.91h2.14v3.94h2.04v1.73h-2.04v3.81h-2.14v-9.48Z"/>
      <path class="cls-107" d="M322.79,30.23v-4.47h2.07v4.4c1.48-.07,2.99-.17,4.38-.36l.14,1.6c-3.11.51-6.53.56-9.18.54l-.2-1.67c.85-.02,1.8-.02,2.79-.05ZM328.64,22.67c-.02,1.41-.02,3.26-.41,5.78l-2.07-.17c.34-2.18.37-3.81.37-5.13h-5.71v-1.7h7.82v1.22ZM329.97,19.91h2.14v6.09h2.07v1.77h-2.07v7.28h-2.14v-15.13Z"/>
    </g>
    <g>
      <path class="cls-107" d="M175.71,37.26c.46-.09,1.01-.14,1.61-.14,1.08,0,1.86.26,2.38.74.58.52.94,1.33.94,2.51s-.35,2.11-.92,2.69c-.58.59-1.5.9-2.64.9-.53,0-.99-.02-1.37-.07v-6.62ZM176.55,43.24c.19.03.45.04.7.04,1.56,0,2.51-.91,2.51-2.87,0-1.62-.78-2.6-2.39-2.6-.35,0-.63.03-.82.07v5.37Z"/>
      <path class="cls-107" d="M184.87,40.73h-2.33v2.46h2.62v.71h-3.46v-6.74h3.32v.71h-2.48v2.16h2.33v.7Z"/>
      <path class="cls-107" d="M186.2,37.25c.39-.08.88-.13,1.51-.13.78,0,1.38.18,1.77.54.35.32.56.81.56,1.41s-.17,1.07-.49,1.42c-.44.5-1.14.74-1.92.74-.22,0-.42,0-.59-.05v2.72h-.84v-6.65ZM187.04,40.49c.16.04.36.06.6.06.96,0,1.56-.51,1.56-1.44,0-.83-.53-1.32-1.46-1.32-.32,0-.57.03-.7.06v2.64Z"/>
      <path class="cls-107" d="M191.36,41.81l-.62,2.09h-.85l2.07-6.74h.99l2.06,6.74h-.88l-.64-2.09h-2.12ZM193.33,41.15l-.57-1.87c-.13-.45-.23-.9-.32-1.32h-.03c-.09.43-.19.89-.32,1.31l-.57,1.88h1.81Z"/>
      <path class="cls-107" d="M195.95,37.26c.41-.09.97-.14,1.5-.14.85,0,1.42.17,1.82.53.33.31.51.76.51,1.29,0,.88-.52,1.46-1.21,1.72v.02c.51.17.8.65.96,1.41.2.94.35,1.56.48,1.81h-.87c-.1-.2-.25-.79-.42-1.63-.18-.92-.53-1.28-1.27-1.29h-.67v2.92h-.84v-6.64ZM196.79,40.34h.72c.87,0,1.43-.52,1.43-1.3,0-.85-.54-1.26-1.43-1.26-.34,0-.59.03-.72.07v2.49Z"/>
      <path class="cls-107" d="M202.11,37.89h-1.81v-.72h4.46v.72h-1.81v6.01h-.84v-6.01Z"/>
      <path class="cls-107" d="M210.69,40.96c-.05-.92-.11-2.01-.1-2.83h-.03c-.21.77-.46,1.61-.75,2.49l-1.08,3.23h-.61l-1-3.15c-.29-.92-.53-1.78-.71-2.57h-.03c-.01.83-.06,1.89-.12,2.89l-.16,2.88h-.79l.45-6.74h1.03l1.04,3.21c.26.84.47,1.56.64,2.28h.03c.16-.71.37-1.42.65-2.28l1.07-3.21h1.04l.41,6.74h-.81l-.16-2.94Z"/>
      <path class="cls-107" d="M216.08,40.73h-2.33v2.46h2.62v.71h-3.46v-6.74h3.32v.71h-2.48v2.16h2.33v.7Z"/>
      <path class="cls-107" d="M217.41,43.9v-6.74h.89l1.88,3.33c.43.77.81,1.53,1.1,2.24h.02c-.07-.95-.09-1.79-.09-2.87v-2.7h.78v6.74h-.84l-1.88-3.36c-.41-.73-.81-1.5-1.12-2.26h-.03c.05.88.07,1.7.07,2.91v2.72h-.78Z"/>
      <path class="cls-107" d="M224.54,37.89h-1.81v-.72h4.46v.72h-1.81v6.01h-.84v-6.01Z"/>
      <path class="cls-107" d="M235,40.47c0,2.37-1.24,3.53-2.77,3.53s-2.68-1.33-2.68-3.43,1.17-3.51,2.78-3.51,2.68,1.36,2.68,3.41ZM230.43,40.56c0,1.42.63,2.74,1.85,2.74s1.84-1.33,1.84-2.8c0-1.32-.56-2.74-1.83-2.74s-1.85,1.36-1.85,2.8Z"/>
      <path class="cls-107" d="M236.07,37.17h3.31v.71h-2.47v2.28h2.28v.7h-2.28v3.05h-.84v-6.74Z"/>
      <path class="cls-107" d="M243.31,37.17v6.74h-.84v-6.74h.84Z"/>
      <path class="cls-107" d="M244.74,43.9v-6.74h.89l1.88,3.33c.43.77.81,1.53,1.1,2.24h.02c-.07-.95-.09-1.79-.09-2.87v-2.7h.78v6.74h-.84l-1.88-3.36c-.41-.73-.81-1.5-1.12-2.26h-.03c.05.88.07,1.7.07,2.91v2.72h-.78Z"/>
      <path class="cls-107" d="M250.74,37.17h3.31v.71h-2.47v2.28h2.29v.7h-2.29v3.05h-.84v-6.74Z"/>
      <path class="cls-107" d="M260.27,40.47c0,2.37-1.25,3.53-2.77,3.53s-2.68-1.33-2.68-3.43,1.17-3.51,2.78-3.51,2.68,1.36,2.68,3.41ZM255.7,40.56c0,1.42.63,2.74,1.85,2.74s1.84-1.33,1.84-2.8c0-1.32-.56-2.74-1.83-2.74s-1.85,1.36-1.85,2.8Z"/>
      <path class="cls-107" d="M261.34,37.26c.41-.09.97-.14,1.5-.14.84,0,1.42.17,1.82.53.33.31.51.76.51,1.29,0,.88-.52,1.46-1.21,1.72v.02c.51.17.8.65.96,1.41.2.94.35,1.56.48,1.81h-.87c-.1-.2-.25-.79-.42-1.63-.18-.92-.53-1.28-1.28-1.29h-.67v2.92h-.84v-6.64ZM262.18,40.34h.72c.87,0,1.43-.52,1.43-1.3,0-.85-.54-1.26-1.43-1.26-.34,0-.59.03-.72.07v2.49Z"/>
      <path class="cls-107" d="M271.54,40.96c-.05-.92-.11-2.01-.1-2.83h-.03c-.21.77-.46,1.61-.75,2.49l-1.08,3.23h-.61l-1-3.15c-.29-.92-.53-1.78-.71-2.57h-.03c-.02.83-.06,1.89-.12,2.89l-.16,2.88h-.79l.45-6.74h1.03l1.04,3.21c.26.84.47,1.56.64,2.28h.03c.16-.71.37-1.42.65-2.28l1.07-3.21h1.04l.41,6.74h-.81l-.16-2.94Z"/>
      <path class="cls-107" d="M274.67,41.81l-.62,2.09h-.85l2.07-6.74h.99l2.06,6.74h-.88l-.64-2.09h-2.12ZM276.64,41.15l-.57-1.87c-.13-.45-.23-.9-.32-1.32h-.03c-.09.43-.19.89-.31,1.31l-.57,1.88h1.81Z"/>
      <path class="cls-107" d="M279.67,37.89h-1.81v-.72h4.46v.72h-1.81v6.01h-.84v-6.01Z"/>
      <path class="cls-107" d="M283.92,37.17v6.74h-.84v-6.74h.84Z"/>
      <path class="cls-107" d="M290.44,40.47c0,2.37-1.25,3.53-2.77,3.53s-2.68-1.33-2.68-3.43,1.17-3.51,2.78-3.51,2.68,1.36,2.68,3.41ZM285.87,40.56c0,1.42.63,2.74,1.85,2.74s1.84-1.33,1.84-2.8c0-1.32-.56-2.74-1.83-2.74s-1.85,1.36-1.85,2.8Z"/>
      <path class="cls-107" d="M291.51,43.9v-6.74h.89l1.88,3.33c.43.77.81,1.53,1.1,2.24h.02c-.07-.95-.09-1.79-.09-2.87v-2.7h.78v6.74h-.83l-1.88-3.36c-.41-.73-.81-1.5-1.12-2.26h-.03c.05.88.07,1.7.07,2.91v2.72h-.78Z"/>
      <path class="cls-107" d="M299.34,42.89c.34.21.86.39,1.38.39.83,0,1.33-.46,1.33-1.15,0-.62-.36-1-1.16-1.35-.93-.38-1.63-.98-1.63-1.9,0-1.04.82-1.81,2.06-1.81.6,0,1.07.15,1.32.3l-.23.7c-.2-.12-.6-.29-1.13-.29-.85,0-1.18.53-1.18.99,0,.64.39.93,1.24,1.32,1.04.49,1.55,1.06,1.55,1.97,0,1.07-.78,1.93-2.22,1.93-.59,0-1.24-.18-1.54-.4l.21-.7Z"/>
      <path class="cls-107" d="M305.35,43.9v-2.85l-1.94-3.88h.94l.84,1.81c.23.5.43.94.62,1.43h.02c.17-.47.39-.93.62-1.44l.85-1.8h.93l-2.04,3.86v2.87h-.84Z"/>
      <path class="cls-107" d="M308.72,42.89c.34.21.86.39,1.38.39.83,0,1.33-.46,1.33-1.15,0-.62-.36-1-1.16-1.35-.93-.38-1.63-.98-1.63-1.9,0-1.04.82-1.81,2.06-1.81.6,0,1.07.15,1.32.3l-.23.7c-.2-.12-.6-.29-1.13-.29-.85,0-1.18.53-1.18.99,0,.64.39.93,1.24,1.32,1.04.49,1.55,1.06,1.55,1.97,0,1.07-.78,1.93-2.22,1.93-.59,0-1.24-.18-1.54-.4l.21-.7Z"/>
      <path class="cls-107" d="M314.51,37.89h-1.81v-.72h4.46v.72h-1.81v6.01h-.84v-6.01Z"/>
      <path class="cls-107" d="M321.09,40.73h-2.33v2.46h2.62v.71h-3.46v-6.74h3.32v.71h-2.48v2.16h2.33v.7Z"/>
      <path class="cls-107" d="M327.62,40.96c-.05-.92-.11-2.01-.1-2.83h-.03c-.21.77-.46,1.61-.75,2.49l-1.08,3.23h-.61l-1-3.15c-.29-.92-.53-1.78-.71-2.57h-.03c-.02.83-.06,1.89-.12,2.89l-.16,2.88h-.79l.45-6.74h1.03l1.04,3.21c.26.84.47,1.56.64,2.28h.03c.16-.71.37-1.42.65-2.28l1.07-3.21h1.04l.41,6.74h-.81l-.16-2.94Z"/>
      <path class="cls-107" d="M329.71,42.89c.34.21.86.39,1.38.39.83,0,1.33-.46,1.33-1.15,0-.62-.36-1-1.16-1.35-.93-.38-1.63-.98-1.63-1.9,0-1.04.82-1.81,2.06-1.81.6,0,1.07.15,1.32.3l-.23.7c-.2-.12-.6-.29-1.13-.29-.85,0-1.18.53-1.18.99,0,.64.39.93,1.24,1.32,1.04.49,1.55,1.06,1.55,1.97,0,1.07-.78,1.93-2.22,1.93-.59,0-1.24-.18-1.54-.4l.21-.7Z"/>
    </g>
  </g>
</svg>